<?xml version="1.0" encoding="UTF-8"?><svg xmlns="http://www.w3.org/2000/svg" xmlns:xlink="http://www.w3.org/1999/xlink" viewBox="0 0 110 110.06"><defs><style>.cls-1{fill:#7abd24;}.cls-2{fill:#4ab70e;}.cls-3{fill:#43fac8;}.cls-4{fill:#4fcdc0;}.cls-5{fill:#75e33c;}.cls-6{fill:#69bf24;}.cls-7{isolation:isolate;}.cls-8{fill:#69d824;}.cls-9{fill:#69d224;}.cls-10{fill:url(#radial-gradient);mix-blend-mode:multiply;}.cls-11{fill:#3c8e31;opacity:.5;}.cls-12{mix-blend-mode:screen;opacity:.24;}.cls-12,.cls-13{fill:#fff;}.cls-14{fill:#4fdbc3;}.cls-15{fill:#20968f;}.cls-16{fill:#88e33d;}.cls-13{opacity:.15;}.cls-17{fill:url(#_Áåçûìÿííûé_ãðàäèåíò_892);opacity:.57;}.cls-18{fill:#3faeb4;}.cls-19{filter:url(#luminosity-noclip-2);}.cls-20{mask:url(#mask-1);}.cls-21{mask:url(#mask);}.cls-22{fill:#7feddc;}.cls-23{fill:#69b024;}</style><filter id="luminosity-noclip-2" x="6.36" y="6.53" width="65.43" height="64.78" color-interpolation-filters="sRGB" filterUnits="userSpaceOnUse"><feFlood flood-color="#fff" result="bg"/><feBlend in="SourceGraphic" in2="bg"/></filter><filter id="luminosity-noclip-3" x="8247.11" y="-8246.74" width="-32766" height="32766" color-interpolation-filters="sRGB" filterUnits="userSpaceOnUse"><feFlood flood-color="#fff" result="bg"/><feBlend in="SourceGraphic" in2="bg"/></filter><mask id="mask-1" x="8247.11" y="-8246.74" width="-32766" height="32766" maskUnits="userSpaceOnUse"/><radialGradient id="radial-gradient" cx="-114.13" cy="-157.09" fx="-114.13" fy="-157.09" r="60.73" gradientTransform="translate(168.65 -98.82) rotate(-88.17) scale(.87 .89) skewX(12.18)" gradientUnits="userSpaceOnUse"><stop offset=".23" stop-color="#f4f4f4"/><stop offset=".67" stop-color="#515151"/><stop offset="1" stop-color="#000"/></radialGradient><mask id="mask" x="6.36" y="6.53" width="65.43" height="64.78" maskUnits="userSpaceOnUse"><g class="cls-19"><g class="cls-20"><path class="cls-10" d="M19.13,18.15c13.87-13.33,36.04-15.92,47.66-3.98,11.62,11.93,1.06,22.71-12.21,39.19-10.89,13.53-29.62,24.86-41.24,12.92C1.72,54.34,5.26,31.48,19.13,18.15Z"/></g></g></mask><radialGradient id="_Áåçûìÿííûé_ãðàäèåíò_892" cx="-114.13" cy="-157.09" fx="-114.13" fy="-157.09" r="60.73" gradientTransform="translate(168.65 -98.82) rotate(-88.17) scale(.87 .89) skewX(12.18)" gradientUnits="userSpaceOnUse"><stop offset=".23" stop-color="#fff"/><stop offset=".67" stop-color="#f7ebc2"/><stop offset="1" stop-color="#f3f9f7"/></radialGradient></defs><g class="cls-7"><g id="Layer_1"><circle class="cls-14" cx="55" cy="55" r="55"/><path class="cls-4" d="M13.53,18.97C29.44,.96,56.84-1.62,75.81,13.49c19.59,15.6,22.78,44.15,7.14,63.77-15.64,19.62-44.2,22.88-63.79,7.28C.19,69.43-3.41,42.16,10.61,22.63-6.71,46.32-2.45,79.63,20.67,98.05c23.73,18.91,58.34,14.96,77.3-8.82,18.96-23.77,15.08-58.37-8.65-77.28C66.2-6.47,32.76-3.19,13.53,18.97Z"/><path class="cls-18" d="M92.44,14.81c-.25-.23-.34,0-.59-.23,13.16,20.99,11.38,49.73-6.73,69.08-17.48,18.68-44.71,22.9-66.64,12.41,9.64,8.56,22.32,13.79,36.22,13.87,.56,0,1.12-.01,1.67-.03,.24,0,.48,0,.71-.02,13.94-.59,27.68-6.39,37.99-17.32,20.83-22.09,19.56-57.14-2.63-77.76Z"/><path class="cls-15" d="M72.46,98.06c.29-.37,.63-.52,.97-.51,.27-.3,.54-.6,.79-.91,2.1-2.58,3.44-5.15,4.25-7.84-1.21-5.05-5.2-9.37-10.17-10.91-1.55-.48-3.25-.7-4.77-.15-1.52,.55-2.8,2.02-2.7,3.63,.09,1.62,1.91,3.01,3.4,2.36-2.6,4.35-8.02,6.83-13.01,5.96-.67,.63-.39,1.75,.11,2.52,.5,.77,1.19,1.48,1.25,2.4,.09,1.29-1.23,2.34-2.52,2.44-1.29,.11-2.54-.46-3.72-1.01,2.89,3.52,3.09,8.97,.54,12.73,.09,.01,.17,.03,.26,.04,.21-.15,.48-.24,.8-.25,2.06-.03,4.04-.44,5.83-1.5,.85-.5,1.66-.05,2,.64,.45-.12,.9-.24,1.35-.35,.19-.5,.62-.91,1.28-.97,5.14-.48,10.93-4.33,14.06-8.32Z"/><path class="cls-5" d="M72.65,6.46c-2-.62-4.14-.76-6.2-.39-1.5,.26-3.18,1.03-3.48,2.52-.29,1.42,.88,2.8,2.24,3.33,1.35,.53,2.86,.46,4.31,.56,5.18,.35,10.17,3.04,13.3,7.18,.86,1.14,1.79,2.51,3.22,2.63,1.87,.15,3.16-2.17,2.69-3.99-.47-1.82-2.02-3.12-3.53-4.24-4.78-3.54-6.86-5.83-12.54-7.6Z"/><path class="cls-15" d="M68.54,13.06c3.89,.42,8.1,.99,10.87,3.74,.95,.95,1.67,2.1,2.49,3.16s1.79,2.07,3.05,2.56c1.25,.49,2.83,.35,3.74-.64,.91-.99,.74-2.86-.47-3.43-.29,1.53-2.39,2.06-3.81,1.4-1.42-.66-2.33-2.03-3.35-3.21-4.03-4.67-10.72-6.88-16.74-5.53,.76,1.43,2.62,1.76,4.23,1.94Z"/><ellipse class="cls-3" cx="49.77" cy="44.43" rx="27.86" ry="22.01" transform="translate(-15.53 30.78) rotate(-29.95)"/><path class="cls-15" d="M55.5,24c.3-1.37,1.53-2.32,2.76-3.01,1.22-.69,2.57-1.27,3.44-2.37,.87-1.1,.99-2.96-.17-3.74,1.48,.67,2.58,2.13,2.82,3.73,.23,1.61-.4,3.32-1.63,4.38-.92,.8-2.12,1.23-3.02,2.05-.9,.82-1.42,2.32-.61,3.23,.34,.38,.84,.57,1.25,.88,1.31,1,1.33,2.91,1.35,4.55,.02,1.64,.41,3.62,1.95,4.19-2.11,.09-4.16-1.47-4.65-3.52-.25-1.06-1.28-2.44-1.56-3.49-.67-2.57-2.48-4.28-1.92-6.87Z"/><path class="cls-15" d="M80.94,74.65c.94-1.01,2.57-.57,3.95-.62,3.68-.14,5.88-4.04,7.35-7.41,1.71-3.92,3.42-7.84,5.14-11.77,.58-1.32,2.57-.71,2.31,.71-.9,4.94-3.16,9.64-6.56,13.36-.55,.6-.98,1.32-1.09,2.12-.43,2.93,2.84,3.39,4.49,2.07,.01-.01,.03-.02,.04-.03,1.01-.83,2.52-.25,2.59,1.06l.06,1.07c2.72-3.36,4.86-7.19,6.32-11.26,.64-1.79,3.32-1.09,3.06,.79-.36,2.51-1.01,5.01-1.81,7.4-1.92,5.79-4.67,11.4-8.83,15.86s-9.86,7.69-15.95,8.04c-6.09,.36-12.48-2.48-15.6-7.72-1.53-2.57-2.21-5.83-1.04-8.58,1.17-2.75,4.56-4.6,7.32-3.43,1.22,.52,2.16,1.51,3.33,2.14s2.82,.76,3.63-.28c.78-.99,.43-2.58,1.29-3.5Z"/><path class="cls-15" d="M15.75,60.36c.23,8.12,4.44,16.02,11.06,20.74,3.24,2.31,7.35,4.37,8.16,8.26,.25,1.22,.17,2.6,.94,3.58,.73,.93,2,1.19,3.17,1.4,3.59,.63,7.8,1.1,10.42-1.44,1.11-1.08,1.82-2.62,3.19-3.34,1.88-.99,4.72-.28,5.73-2.3,.33-.67,.31-1.48,.04-2.18-.84-2.15-3.19-3.06-4.27-4.97-1.07-1.88-.62-4.33,.55-6.15,.44-.68,.97-1.3,1.54-1.86,1.56-1.54,.86-4.22-1.3-4.62-2.19-.4-4.52-.09-6.48,.97-2.07,1.13-4,3.08-6.47,2.31-1.61-.5-2.64-2.03-2.82-3.7-.32-2.93,1.48-5.38,3.46-7.35-3.58,1.73-8.21,3.81-12.12,4.51-3.91,.7-8.21,.23-11.39-2.15-1.56-1.17-1.49-1.37-3.41-1.72Z"/><path class="cls-15" d="M86.38,49.92c-2.74,2.11-6.56,1.81-10,1.5-7.95-.71-16.18-.91-23.66,1.87-7.48,2.78-14.08,9.15-15.01,17.07,.11-7.72,5.59-14.68,12.49-18.16s13.86-4.18,21.55-3.36c3.38,.36,8.1,1.13,11.1-.46,2.4-1.27,3.98-3.78,4.58-6.43,.6-2.65,.32-5.42-.3-8.07,1.06,2.68,2.14,5.42,2.29,8.31,.16,2.88-.77,5.98-3.05,7.74Z"/><path class="cls-2" d="M61.16,80.43s.02-.01,.03-.02c-.12-.05-.23-.1-.35-.14,.12,.13,.27,.3,.32,.16Z"/><path class="cls-2" d="M36.93,95.31c-2.75-1.58-4.89-2.38-7.93-3.29-1.29,.34-2.36-1.22-2.31-2.56,.05-1.34,.73-2.58,.86-3.91,.12-1.33-.73-2.96-2.06-2.84-1,.09-1.63,1.11-1.95,2.05-.32,.95-.53,2.01-1.28,2.66-.97,.85-2.54,.66-3.57-.1s-1.64-1.97-2.11-3.17-.86-2.45-1.61-3.49c-1.09-1.52-2.92-2.48-4.8-2.5-.92-.01-2.58,1.31-3.83,2.44,6.28,11.88,16.8,21.19,29.54,25.91,.15,.06,.31,.11,.46,.17,.53,.19,1.06,.37,1.6,.54,.62,.2,1.25,.39,1.88,.57,.19,.05,.38,.11,.57,.16,.92,.25,1.84,.48,2.77,.68,.5-2.1,.69-4.86,.08-6.48-1.12-2.97-3.57-5.29-6.32-6.86Z"/><path class="cls-2" d="M17.84,26.97c-.49,1.09-1.2,2.14-1.24,3.34-.04,1.2,.69,2.4,1.77,2.91,.78,.37,.35,1.47-.09,2.21-.44,.74-1.35,1.17-2.2,1.04-3.38,11.47-1.78,24.81,4.96,34.69,6.74,9.88,18.05,16.5,29.97,17.56,.78,.07,2.54,.8,3.67-.8-.71,.12-1.35-.54-1.5-1.24-.15-.7,.03-1.42,.17-2.12,.25-1.36,.3-2.75,.13-4.12-.06-.52-.16-1.05-.44-1.5s-.76-.8-1.28-.78c-.79,.03-1.31,.8-1.76,1.46s-.98,1.72-1.73,1.46c-1.08,.59-2.58,.22-3.27-.79-.69-1.01-.48-2.54,.46-3.33,.59-.5,1.44-.75,1.79-1.44,.47-.91-.27-2.05-1.23-2.4-.96-.35-2.09-.23-3.05,.09-1.27,.42-2.71-.37-3.39-1.52s-.75-2.56-.63-3.9c.59-6.87,5.63-12.81,11.8-15.89,6.17-3.08,13.32-3.64,20.21-3.15,2.9,.21,5.81,.59,8.71,.34,2.9-.25,6.32-.77,7.57-3.39,2.44-5.14,2.1-11.66-1.38-16.18-3.48-4.51-10.13-6.48-15.3-4.06-1.69,.79-3.24,2.08-3.9,3.83-.61,1.63-.38,3.46-.83,5.15-.45,1.68-2.16,3.33-3.77,2.65-1.17-.49-1.6-1.92-1.72-3.18-.12-1.26-.1-2.63-.87-3.65-.55-.73-1.4-1.14-2.12-1.7-.71-.56-1.33-1.45-1.09-2.32,.25-.89,1.23-1.31,2.03-1.76,2.84-1.6,4.49-5.08,3.92-8.29-.25-1.42-.95-2.83-2.19-3.57-2.27-1.37-5.12-.02-7.59,.94-8.8,3.41-19.44,1.11-26.24-5.37-3.68,2.27-7.08,4.96-10.12,8,2.72,2.75,3.41,7.13,1.77,10.76Z"/><path class="cls-2" d="M60.69,80.21s.1,.04,.14,.06c-.09-.1-.16-.17-.14-.06Z"/><path class="cls-2" d="M93.61,15.86c-.41,.51-.75,1.1-1.07,1.67-.49,.87-1,1.86-.76,2.83,.41,1.65,2.5,2.04,4.04,2.76,4.14,1.93,5.55,7.75,9.51,9.68-2.82-6.37-6.82-12.11-11.72-16.93Z"/><path class="cls-2" d="M48.96,109.6c1.99,.22,4.01,.34,6.06,.34,22.99,0,42.68-14.1,50.89-34.11-.32-.19-.67-.35-1.03-.46-1.59-.47-3.43-.03-4.62,1.13-.67,.65-1.14,1.48-1.71,2.22-.58,.74-1.33,1.42-2.26,1.55-.93,.13-2-.51-2.02-1.45-2.99-.6-6.39-1.78-9.38-2.38-.95-.19-1.98-.38-2.87,.02-2.07,.91-2.32,4.43-5.56,3.54-.95-.26-1.78-.83-2.47-1.53-1.94-1.97-4.88-2.04-7.35-1.19-.99,.34-1.93,.82-2.83,1.37-1.12,.68-1.31,2.12-.56,3.2v.02c.6,.86,.43,2.29-.55,2.63-.38,.94-1.31,1.01-2.32,1.17-1,.16-2.06,.15-2.97,.59-.9,.43-1.55,1.25-2.16,2.04-.56,.72-1.12,1.43-1.58,2.21-.96,.51-.71,.72-.32,1.73,.39,1.01,.91,2.18,.36,3.11-.5,.84-1.66,1.02-2.64,.89-1.16-.16-2.31-.65-3.49-.25-.74,.25-1.32,.94-1.19,1.71,.15,.92,1.17,1.29,1.92,1.8,2.1,1.44,2.29,4.5,1.66,6.96-.27,1.06-.65,2.11-1,3.16Z"/><path class="cls-3" d="M82.54,55.4c-1.82-.52-3.64,.71-5.14,1.87-3.94,3.04-7.87,6.08-11.81,9.12-1.43,1.1-3.03,2.76-2.36,4.44,.46,1.17,1.83,1.67,3.07,1.89,3.67,.67,7.57,.03,10.84-1.77,3.27-1.8,5.89-4.75,7.29-8.2,.54-1.33,.9-2.77,.67-4.19-.24-1.41-1.18-2.77-2.56-3.16Z"/><path class="cls-8" d="M68.76,33.84c-.53,2.02-2.95,3.43-2.7,5.5,.22,1.81,2.3,2.66,4.01,3.28,2.82,1.03,5.52,2.41,8,4.1,2.35,1.34,5.54,.09,7.06-2.15s1.67-5.14,1.34-7.82c-.32-2.55-1.14-5.2-3.1-6.87-.72-.61-1.54-1.06-2.42-1.41-.08-.03-.16-.06-.24-.09-1.65,.26-3.49,1.18-4.72-1.26-.08-.02-.17-.03-.25-.05-1-.18-2.01-.27-3.01-.12-1.67,.25-3.33,1.31-3.76,2.94-.34,1.28,.13,2.68-.21,3.96Z"/><path class="cls-8" d="M37.01,73.7c-1.76-3.63-1.33-8.22,1.07-11.46-1.53-.55-3.08,.84-3.78,2.31-1,2.08-1.25,4.66-4.25,5.33-.25,.05-.52,0-.72-.14-1.86-1.31-1.1-2.7-.22-3.67,2-2.2,4.84-3.38,7.41-4.88,2.57-1.49,5.1-3.6,5.65-6.52-2.82,2.25-5.69,4.53-9.02,5.9s-7.27,1.72-10.49,.11c-.95-.48-1.87-1.13-2.95-1.18-.69-.03-1.36,.31-1.75,.88-.61,.92,.39,2.88,.67,3.49,2.87,6.28,6.87,10.04,12.51,15.21,3.53,3.23,9.67,6.65,15.03,4.47,.92-.38,.67-1.71-.33-1.73-5.92-.12-8.93-9.51-8.84-8.1Z"/><path class="cls-5" d="M60.02,44.99c-.44,.42-.97,.76-1.36,1.24-.39,.47-.63,1.15-.37,1.7,4.51-1.14,9.23-1.44,13.85-.87,.36,.04,.74,.09,1.08-.03,.34-.12,.63-.48,.54-.83-.09-.34-.46-.52-.79-.62-1.82-.59-3.79-.59-5.65-1.04-1.86-.45-3.77-1.56-4.31-3.39-.19-.64-.21-1.34-.58-1.89-.37-.55-1.33-.77-1.65-.19,1.14,1.83,.81,4.44-.74,5.93Z"/><path class="cls-1" d="M11.16,85.21c2.31-.49,4.17,1.74,5.82,3.43,5.88,6.02,15.19,7.17,21.98,12.15,.8,.58,1.64,1.44,1.43,2.4-.16,.73-.91,1.21-1.65,1.3-.74,.08-1.48-.15-2.19-.4-8.46-2.98-15.72-8.54-22.82-14.01-1.57-1.21-3.33-3.04-2.58-4.88Z"/><path class="cls-16" d="M52.48,45.42c2.42-2.21,1.96-6.1,.96-9.22-1-3.11-2.36-6.49-1.14-9.53,1.08-2.69,4.09-5.1,3.03-7.8-.59-1.52-2.36-2.3-3.99-2.26-1.63,.04-3.16,.72-4.66,1.35-2.67,1.13-5.45,2.15-8.35,2.3s-5.97-.69-7.95-2.81c-1.12-1.2-1.83-2.73-2.95-3.93-1.12-1.2-2.94-2.02-4.4-1.27-1.15,.59-1.68,1.99-1.67,3.28,.02,1.29,.48,2.53,.84,3.77,2,6.79,1.14,14.37-2.33,20.55-2.21,3.93-5.55,8.17-4.02,12.41,1.23,3.41,5.37,5.05,8.98,4.59,3.61-.46,6.79-2.5,9.8-4.53,3.01-2.03,6.12-4.15,9.69-4.8,2.81-.51,6.05-.18,8.15-2.11Z"/><path class="cls-6" d="M88.58,81.16c-5.3-1.97-10.75,5.33-16.09,3.46-1.57-.55-2.98-1.87-4.63-1.63-1.46,.21-2.45,1.62-2.9,3.02-.44,1.4-.52,2.91-1.06,4.28-.83,2.07-2.62,3.56-4.39,4.91s-3.64,2.71-4.72,4.65-1.11,4.68,.57,6.14c10.88-.78,22.08-3.03,30.85-9.52,2.55-1.89,4.95-4.27,5.79-7.33,.83-3.06-.43-6.86-3.41-7.97Z"/><path class="cls-11" d="M48.96,109.72c1.99,.22,4.01,.34,6.06,.34,22.64,0,42.07-13.67,50.5-33.2-1.48-.71-3.26-.79-4.61,.1-.89,.58-1.54,1.51-2.47,2-.56,.69-1.28,1.3-2.15,1.42-.7,.1-1.47-.24-1.83-.81-2.76,.66-4.87,3.07-6.89,5.16-9.85,10.23-24.04,16.11-38.24,15.95,1.08,1.6,1.12,3.92,.62,5.88-.27,1.06-.65,2.11-1,3.16Z"/><path class="cls-3" d="M89.94,61.81c3.24-2.76,5.18-6.83,5.97-11.01,.79-4.18,.51-8.49-.11-12.7-.23-1.55-.5-3.1-.79-4.63-.22-1.13-.62-2.47-1.78-2.73-.96-.22-1.87,.44-2.24,1.35-.55,1.38-.05,2.8,.3,4.17,1.29,5.12,.24,10.74-2.65,15.14-1.05,1.59-1.51,3.49-1.38,5.4,.01,.16,.01,.33,0,.49-.08,1.06-.47,2.1-.39,3.15s.96,2.19,2.01,1.98c.4-.08,.74-.34,1.05-.61Z"/><path class="cls-8" d="M77.21,36.01c-.39-2.47-1.46-4.84-3.06-6.77-.36-.44-.79-.88-1.35-.98-.99-.18-1.86,.83-1.98,1.83-.12,1,.26,1.98,.51,2.95,.25,.97,.35,2.1-.25,2.9-.47,.63-1.32,1-1.55,1.76-.21,.68,.21,1.43,.79,1.83s1.31,.54,2.01,.66c1.4,.25,3.03,.44,4.08-.52,.96-.88,1.01-2.38,.8-3.67Z"/><path class="cls-9" d="M26.18,74.2c.99,1.45,2,2.93,3.37,4.02,1.86,1.47,4.24,2.12,6.58,2.48,.71,.11,1.63,.08,1.9-.59,.18-.44-.06-.96-.43-1.26-.37-.3-.84-.44-1.29-.59-3.2-1.06-6.04-3.21-7.93-6-1.13-1.66-1.92-3.53-3.09-5.17-1.17-1.63-2.84-3.07-4.84-3.28-.33,1.34,.48,2.67,1.26,3.81,1.49,2.19,2.98,4.38,4.47,6.58Z"/><path class="cls-23" d="M73.86,92.21c.41,.18,.82,.36,1.23,.53-.49,.82-1.46,1.2-2.36,1.52-4.24,1.5-8.48,3.01-12.72,4.51,2.03-1.64,4.13-3.35,5.27-5.7,.72-1.48,1.06-3.21,2.27-4.33,1.16-1.08,3.02-1.31,4.41-.55,1.39,.76,2.19,2.45,1.91,4.01Z"/><path class="cls-15" d="M52.35,64.33c-.12,.12-2.5,2.09-5.51,2.8-.92,.22-2.22,.33-2.45-.59-.13-.54,.25-1.06,.61-1.49l.29-.34c2.96-3.44-1.27-1.09-1.5-1.38-.59-.73,5.05-8.16,14.7-9.87,1.92-.34,4.06-.44,5.64,.7-4.21,.03-8.41,1.19-12.04,3.32-.9,.53-1.78,1.13-2.4,1.96-.17,.22-.31,.46-.43,.71-.41,.88,.59,1.76,1.44,1.29,2.34-1.3,6.72-5,7.03-3.89,.08,.39,4.98-.99,.24,1.18-2.44,1.15-4.46,3.16-5.61,5.59Z"/><path class="cls-8" d="M81.06,34.84c.2-.15,.35-.37,.34-.62,0-.39-.36-.7-.4-1.09-.04-.48,.4-.83,.74-1.16s.61-.92,.27-1.25c-.63-.53-1.63-.46-2.28,.04s-.98,1.34-.99,2.16c-.01,.63,.16,1.28,.6,1.72,.45,.44,1.21,.58,1.71,.21Z"/><path class="cls-15" d="M90.73,22.47c-1.47,1.45-3.67,2.11-5.7,1.72,.01,.11-.44,.21-.43,.32,.23,.42,.79,.49,1.26,.47,.47-.02,1-.08,1.37,.21,.46,.36,.45,1.03,.69,1.56,.64,1.39,2.85,1.51,3.4,2.93-.32-1.23-.64-2.47-.97-3.7-.13-.5-.25-1.05,0-1.49,.19-.33,.55-.52,.78-.82,.23-.3-.06-1.09-.42-1.19Z"/><path class="cls-22" d="M5.86,43.54c.11-1.72,.31-3.43,.62-5.12,.13-.74-.91-1.01-1.15-.3-1.82,5.43-2.83,11.13-2.96,16.85-.04,1.87,.07,3.88,.63,5.66,.39,1.23,2.19,.93,2.15-.36-.12-3.56,.06-7.12,.54-10.65-.57,10.44,3.65,21.05,11.25,28.24-3.63-9.15-7.1-18.52-8.01-28.32-.76-8.13,.43-16.69,4.36-23.75,.28-.5-.41-.96-.77-.51-4.17,5.11-6.6,11.65-6.66,18.26Z"/><path class="cls-11" d="M43.21,108.78c.49-1.22,.68-2.57,.59-3.9-.23-.81-.59-1.6-1.07-2.29-1.39-2.01-3.57-3.35-5.84-4.28s-4.66-1.49-6.98-2.29c-7.26-2.5-13.66-7.41-17.96-13.76-.7-1.03-1.35-2.11-2.26-2.96-.33-.31-.52-.29-.92-.51-.98,.26-1.69,1.14-2.43,1.83,7.36,14.48,20.57,24.6,36.87,28.16Z"/><path class="cls-8" d="M27.93,40.45c.16-1.04,.5-2.06,.46-3.11-.04-1.05-.58-2.19-1.58-2.49-1.14-.34-2.33,.54-2.87,1.59-.54,1.06-.64,2.28-.99,3.41-1.06,3.48-4.42,6.36-4.01,9.97,.32,2.86,3.46,5.05,6.26,4.38,2.76-.67,4.43-3.4,6.74-5.05,.56-.4,1.18-.75,1.63-1.27,.45-.52,.69-1.3,.38-1.91-.93-1.2-2.89-.54-4.29-1.14-1.56-.67-1.99-2.71-1.73-4.38Z"/><path class="cls-8" d="M43.93,34.54c.55-1.35,1.73-2.33,2.89-3.23,1.16-.89,2.38-1.79,3.07-3.08,.7-1.28,.69-3.08-.43-4.02-.76-.64-1.82-.75-2.81-.7-2.19,.11-4.35,.88-6.12,2.18-1.46,1.07-2.65,2.49-4.12,3.56-1.46,1.07-3.38,1.79-5.09,1.21-.8-.27-1.52-.82-2.37-.87-.84-.05-1.8,.81-1.38,1.55,2.07,1.37,3.21,4.01,2.79,6.45-.17,.99-.57,1.95-.51,2.95,.06,1,.82,2.07,1.82,1.97-.03-.96-.04-1.99,.49-2.78,.54-.79,1.85-1.11,2.44-.36,.29,.37,.32,.87,.4,1.33,.32,1.94,1.62,3.69,3.38,4.55,1.18,.58,2.64,.75,3.77,.09,1.65-.97,1.94-3.23,1.74-5.12s-.7-3.89,.02-5.66Z"/><path class="cls-13" d="M0,55C0,63.21,1.82,70.99,5.05,77.99c19.65,5.08,39.76-1.41,54.66-17.21,15.34-16.26,20.91-38.05,13.68-57.57C67.64,1.18,61.45,.06,55,.06,24.62,.06,0,24.66,0,55Z"/><path class="cls-12" d="M27.49,102.52c-.49-.26-.96-.53-1.43-.8,8.41,5.21,18.32,8.23,28.95,8.23,30.38,0,55-24.6,55-54.94S85.38,.06,55,.06c-6.79,0-13.28,1.23-19.28,3.48,13.76-4.67,29.34-3.91,43.17,3.41,26.52,14.05,36.52,46.83,22.32,73.22-14.19,26.39-47.2,36.4-73.72,22.35Z"/><g class="cls-21"><path class="cls-17" d="M19.13,18.15c13.87-13.33,36.04-15.92,47.66-3.98,11.62,11.93,1.06,22.71-12.21,39.19-10.89,13.53-29.62,24.86-41.24,12.92C1.72,54.34,5.26,31.48,19.13,18.15Z"/></g></g></g></svg>