<?xml version="1.0" encoding="UTF-8"?><svg xmlns="http://www.w3.org/2000/svg" xmlns:xlink="http://www.w3.org/1999/xlink" viewBox="0 0 110 110"><defs><style>.cls-1{fill:url(#_Áåçûìÿííûé_ãðàäèåíò_883);opacity:.49;}.cls-2{fill:#d27d28;}.cls-3{fill:#fffae6;}.cls-4{fill:#cbc385;}.cls-5{fill:#bd6420;opacity:.47;}.cls-6{fill:#a3eaf0;}.cls-7{fill:#a68a53;}.cls-8{fill:#db7227;}.cls-9{isolation:isolate;}.cls-10{fill:#de5f2a;}.cls-11{fill:url(#radial-gradient);mix-blend-mode:multiply;}.cls-12{fill:#c0641f;}.cls-13{fill:#f6d57c;}.cls-14{mix-blend-mode:screen;opacity:.24;}.cls-14,.cls-15{fill:#fff;}.cls-16{fill:#ecb24f;}.cls-15{opacity:.15;}.cls-17{fill:#a3d7f0;}.cls-18{filter:url(#luminosity-noclip-2);}.cls-19{mask:url(#mask-1);}.cls-20{mask:url(#mask);}.cls-21{fill:#cbaa75;}.cls-22{fill:#a57045;}</style><filter id="luminosity-noclip-2" x="4.61" y="6.47" width="65.43" height="64.78" color-interpolation-filters="sRGB" filterUnits="userSpaceOnUse"><feFlood flood-color="#fff" result="bg"/><feBlend in="SourceGraphic" in2="bg"/></filter><filter id="luminosity-noclip-3" x="8247.11" y="-8246.74" width="-32766" height="32766" color-interpolation-filters="sRGB" filterUnits="userSpaceOnUse"><feFlood flood-color="#fff" result="bg"/><feBlend in="SourceGraphic" in2="bg"/></filter><mask id="mask-1" x="8247.11" y="-8246.74" width="-32766" height="32766" maskUnits="userSpaceOnUse"/><radialGradient id="radial-gradient" cx="-111.45" cy="-156.53" fx="-111.45" fy="-156.53" r="59.65" gradientTransform="translate(168.92 -98.65) rotate(-88.17) scale(.89 .91) skewX(12.18)" gradientUnits="userSpaceOnUse"><stop offset="0" stop-color="#fff"/><stop offset=".77" stop-color="#000"/></radialGradient><mask id="mask" x="4.61" y="6.47" width="65.43" height="64.78" maskUnits="userSpaceOnUse"><g class="cls-18"><g class="cls-19"><path class="cls-11" d="M17.38,18.09c13.87-13.33,36.04-15.92,47.66-3.98,11.62,11.93,1.06,22.71-12.21,39.19-10.89,13.53-29.62,24.86-41.24,12.92C-.03,54.28,3.51,31.42,17.38,18.09Z"/></g></g></mask><radialGradient id="_Áåçûìÿííûé_ãðàäèåíò_883" cx="-111.45" cy="-156.53" fx="-111.45" fy="-156.53" r="59.65" gradientTransform="translate(168.92 -98.65) rotate(-88.17) scale(.89 .91) skewX(12.18)" gradientUnits="userSpaceOnUse"><stop offset="0" stop-color="#fff"/><stop offset=".77" stop-color="#f3f9f7"/></radialGradient></defs><g class="cls-9"><g id="Layer_1"><circle class="cls-13" cx="55" cy="55" r="54.95"/><path class="cls-5" d="M13.53,18.97C29.44,.96,56.84-1.62,75.81,13.49c19.59,15.6,22.78,44.15,7.14,63.77-15.64,19.62-44.2,22.88-63.79,7.28C.19,69.43-3.41,42.16,10.61,22.63-6.71,46.32-2.45,79.63,20.67,98.05c23.73,18.91,58.34,14.96,77.3-8.82,18.96-23.77,15.08-58.37-8.65-77.28C66.2-6.47,32.76-3.19,13.53,18.97Z"/><path class="cls-7" d="M85.12,83.69c-17.7,18.93-44.98,23.01-67.05,12,22.22,20.16,56.32,18.86,76.99-3.08,20.83-22.11,19.56-57.21-2.63-77.85-.25-.23-.34,0-.59-.23,13.16,21.01,11.38,49.78-6.73,69.15Z"/><path class="cls-4" d="M86.09,9.69C77.24,3.61,66.54,.05,55,.05,40.75,.05,27.77,5.47,18.01,14.37c2.71,.74,5.56,1.06,8.37,1.27,17.95,1.35,35.95-1.15,53.71-4.04,2.05-.33,4.3-.83,6-1.91Z"/><path class="cls-4" d="M109.8,51.13c-8.61,5.6-18.71,8.76-28.89,10.34-11.26,1.75-22.71,1.67-34.11,1.59-15.72-.11-31.77-.29-46.68-5.15,.28,5.26,1.3,10.32,2.96,15.09,7.45,.75,15.05-1.3,22.58-2,17.71-1.64,35.49,4.29,53.19,2.53,7.63-.76,15.03-2.93,22.38-5.09,2.52-.74,5.04-1.48,7.56-2.22,.75-3.63,1.15-7.38,1.15-11.23,0-1.3-.06-2.59-.15-3.87Z"/><path class="cls-4" d="M106.05,35.38c.06-.12,.09-.25,.13-.38-.99-2.54-2.17-4.99-3.51-7.33-1.7-.81-3.69-1.03-5.58-.83-2.5,.26-4.87,1.17-7.21,2.07-3.14,1.21-6.28,2.42-9.42,3.63-2.32,.89-4.64,1.79-7.03,2.48-7.94,2.3-16.33,2.29-24.6,2.26-11.15-.03-22.29-.07-33.43-.43-3.89-.13-8.23-.53-11.24-2.72-1.67,4.07-2.87,8.37-3.52,12.86,9.38,1.6,18.77,3.2,28.15,4.8,.87,.15,1.79,.29,2.61-.03,.82-.33,1.45-1.31,1.06-2.11-.27-.56-.98-.98-.87-1.59,.12-.63,.96-.74,1.6-.68,10.64,.93,20.7,6.64,31.35,5.93,12.24-.81,22.3-9.84,34.02-13.46,2.87-.89,6.21-1.75,7.48-4.47Z"/><path class="cls-21" d="M109.78,51.15c-3.33,2.16-6.88,3.96-10.57,5.44-1,4.75-2.61,9.4-4.84,13.83,2.3-.63,4.59-1.3,6.87-1.97,2.52-.74,5.03-1.48,7.55-2.22,1.02-4.97,1.35-10.05,.99-15.09Z"/><path class="cls-21" d="M100.17,39.35c2.42-.77,4.84-1.75,5.88-3.97,.06-.12,.09-.25,.13-.37-.3-.76-.62-1.52-.95-2.28-.1-.22-.2-.44-.3-.67-.21-.46-.43-.91-.65-1.36-.18-.36-.36-.72-.54-1.08-.12-.22-.24-.44-.36-.67-.23-.43-.46-.86-.7-1.28-1.55-.74-3.34-.97-5.09-.86,1.33,4.07,2.19,8.27,2.59,12.53Z"/><path class="cls-8" d="M53.99,81.39l-10.61-4.46c-2.73-1.15-5.37-1.51-8.33-1.48-2.55,.03-5.16,.15-7.54,1.06l-9.79,3.74c4.35,4.29,13.42,9.32,18.77,9.72,6.34,.48,12.63-5.05,17.5-8.6Z"/><path class="cls-8" d="M74.84,79.26c-3.41-.1-6.84,1.06-9.49,3.21,2.84,1.17,6.1,1.3,9.03,.36,.71-.23,1.44-.55,1.89-1.15,.45-.6,.5-1.55-.07-2.04-.36-.31-.88-.36-1.36-.38Z"/><path class="cls-8" d="M56.46,80.24c1.8,.6,3.76,0,5.66,.06,2.72,.07,18.55,.46,21.27,.54-2.7,2.48-19.98,2.47-23.63,2.02-3.38-.42-12.42-.34-16.32,.75,.84-1.57,.21-4,1.97-4.29,1.32-.21,9.78,.5,11.05,.92Z"/><path class="cls-5" d="M81.43,87.32c-.99-.09-2.03-.18-2.95,.18-.93,.37-1.7,1.34-1.48,2.31-4.1,2.11-8.57-2.81-13.18-2.65-2.35,.08-4.42,1.48-6.53,2.53-7.91,3.91-15.68,7.31-24.24,5.18-6.9-1.72-14.2-4.02-20.95-9.07-.81-.6-2.05,.09-1.81,1.07,.01,.05,.03,.1,.06,.14,5.93,2.96,14.91,12.37,21.32,13.88,10.52,2.48,23.51,2.58,34.28,1.7,7.02-.57,10.09-3.89,17.02-5.11,5.27-.93,9.36-6.57,14.57-7.68,.24-.29,.46-.58,.69-.88-5.6-.53-11.19-1.07-16.79-1.6Z"/><path class="cls-8" d="M6.12,80.11c5.27,1.43,18.32,1.79,20.73,.54,5.03-2.61-16.13-2.31-21.78-2.69,.33,.73,.69,1.44,1.05,2.15Z"/><path class="cls-8" d="M95.45,77.42c-6.24,.81-23.59,2.52-29.55,4.56,16.53,1.97,25.35-1.75,32.26-2.59,2.58-.31,4.59-2.01,7.17-2.32,.31-.72,.61-1.44,.89-2.17-3.42,1.32-7.13,2.05-10.77,2.52Z"/><path class="cls-6" d="M79.76,70.96c-4-1.48-8.37-1.95-12.6-1.35-3.05,.43-6.31,1.36-9.06,0-1.18-.59-2.17-1.57-3.45-1.9-3.68-.97-5.89,2.13-9.58,3.07-3.97,1.01-7.44-3.4-11.54-3.47-2.21-.04-4.21,1.19-6.31,1.89-2.83,.94-5.39,.63-8.2-.38-.33,.54-1.21-.05-1.26-.68-.06-.63,.22-1.31-.04-1.88-.38-.82-1.54-.82-2.43-.66-2.83,.54-5.59,1.51-8.46,1.67-1.95,.11-4.02-.26-5.67-1.23,.62,3.05,1.51,6,2.61,8.84,.43,1.11,9.59,.17,10.77,.02,4.84-.6,9.36-2.64,14.15-3.21,10.78-1.29,20.6,2.32,30.77,5.15,1.02,.29,2.11,.59,3.13,.29,.1-.03,.2-.07,.3-.11,2.22-1.05,4.59-1.71,7.03-1.46,13.05,1.33,26.01-.92,38.09-6.04,.74-2.71,1.28-5.5,1.6-8.36-9.58,4.36-19.45,7.53-29.84,9.81Z"/><path class="cls-2" d="M.28,59.97c.42,.02,.84,.04,1.26,.06,10.59,.49,21.35,5.06,31.47,1.9-11.21-.88-22.3-3.17-32.95-6.75,0,1.62,.09,3.21,.23,4.79Z"/><path class="cls-2" d="M109.94,54.51c-.02-2.23-.18-4.42-.45-6.57-5.56,5.79-13.75,9.15-21.76,10.93-10.31,2.29-13.79,9.22-34.66,4.92,15.9-1.64,35.53-2.16,50.82-6.83,2.08-.64,4.2-1.37,6.06-2.45Z"/><path class="cls-6" d="M106.64,36.17c-6.13,3.29-13.33,5.24-19.81,7.77-9.61,3.74-18.65,10.78-28.63,8.18-8.68-2.26-17.36-4.51-26.03-6.77-.52-.13-1.06-.27-1.59-.2-1.2,.16-2.03,1.52-1.72,2.69,.37,1.39,1.92,2.79,2.94,1.24,.05,.48,.11,.96,.16,1.44-1.76,.08-3.58-1.07-5.11-.23-.63,.35-1.34,.57-2.06,.49-3.13-.33-4.79-3.25-7.49-4.27-1.71-.65-3.61-.46-5.44-.66-2.61-.29-5.05-1.38-7.57-2.12-.95-.28-1.95-.5-2.94-.61-.38,1.73-.68,3.49-.89,5.28,3.86,1.5,8.08,2.61,12.03,3.54,1.15,.27,2.26-.57,2.3-1.75v-.02c9.08,3.93,27.88,7.24,28.78,4.13-.5-.4-1-.81-1.5-1.21,7.8-2.06,15.72,2.91,23.78,2.99,4.8,.05,9.43-1.64,13.88-3.41,7.9-3.14,20.34-7.18,28.27-12.21-.4-1.45-.84-2.89-1.35-4.29Z"/><path class="cls-22" d="M102.44,27.27c-.99-1.68-2.05-3.32-3.21-4.88-8.16,2.56-16.51,4.57-24.99,4.04-6.21-.39-12.44-2.14-18.58-1.1-4.55,.77-14.33,.74-18.62,2.42-11.46,4.49-20.13,7.85-31.89,4.13-.42,.91-.81,1.82-1.19,2.76,.1,.19,.21,.37,.36,.52,.97,.98,2.46,1.16,3.83,1.28,23.03,2.03,46.26,1.85,69.26-.53,.54-.06,1.13-.13,1.52-.51,.39-.38,.4-1.17-.1-1.38,.56-.29,1.12-.59,1.69-.88,6.73-3.52,14.55-4.05,21.93-5.86Z"/><path class="cls-2" d="M95.19,17.54c-5.31,2.47-11.31,3.45-17.19,3.81-7.36,.45-14.78,.02-22.11,.83-9.54,1.06-18.77,4.19-28.33,5.02-6.38,.55-12.84,.05-19.06-1.45-1.32,2.09-2.5,4.28-3.53,6.56,1.95,.89,3.94,1.7,5.99,2.34,5.23,1.64,10.94,2.2,16.17,.59,4.95-1.52,9.56-4.94,14.71-4.46,2.27,.21,4.39,1.18,6.61,1.67,2.22,.5,4.92-.1,7.1-.78,.67-.21,1.14-.91,1.08-1.61-1.13-.56-2.27-1.12-3.4-1.69,.88-2.05,3.7-2.97,5.61-1.83,2.34,2.99,6.29,4.37,10.09,4.46s7.53-.93,11.19-1.95c6.68-1.85,13.36-3.59,20.04-5.4-1.5-2.16-3.15-4.2-4.94-6.12Z"/><path class="cls-6" d="M70.53,14.14c5.94-.94,11.88-1.88,17.82-2.82-.95-.72-1.91-1.42-2.9-2.08-9.96,3.33-20.68,4.32-31.21,5.26-11.82,1.05-24.13,2.01-35.51-.76-.88,.78-1.75,1.57-2.58,2.4,17.63,3.62,36.39,.84,54.39-2Z"/><path class="cls-17" d="M96.17,66.43c-1.12,2.75-2.46,5.42-4.03,8.01,5.4-1.08,10.7-2.74,15.85-4.92,.03-.09,.06-.19,.08-.28,.08-.28,.14-.57,.22-.85,.15-.59,.28-1.17,.41-1.76,.04-.17,.07-.34,.11-.52,.33-1.64,.59-3.29,.78-4.94-4.4,2-8.87,3.74-13.41,5.27Z"/><path class="cls-17" d="M106.6,36.19c-2.05,1.1-4.23,2.04-6.45,2.91,.17,1.78,.27,3.58,.27,5.37,2.73-1.26,5.32-2.58,7.55-3.99-.39-1.45-.85-2.88-1.37-4.29Z"/><path class="cls-16" d="M43.23,78.87c1.17,.71,2.36,1.78,2.33,3.15-.03,1.55-1.57,2.61-2.99,3.24-4.38,1.96-9.88,2.46-13.68-.46-.82-.63-1.53-1.4-2.39-1.99,0,0-.02-.01-.03-.02-1.16-.8-1.25-2.48-.1-3.29,1.91-1.35,4.13-2.27,6.44-2.64,3.56-.58,7.32,.15,10.4,2.01Z"/><path class="cls-10" d="M41.92,83.39c-3.76,1.45-8.03,1.52-11.85,.24-1.22-.41-1.54-2.03-.49-2.76,3.74-2.63,9.27-2.69,12.88,.19,.35,.28,.7,.63,.71,1.08,0,.63-.66,1.03-1.25,1.26Z"/><path class="cls-8" d="M56.26,61.2c-15.3-.11-31.24-.48-45.56-5.19-3.46-1.14-7.34-.18-10.63-1.67,0,.22-.02,.44-.02,.66,0,1.31,.06,2.6,.15,3.88,.8,.43,1.68,.73,2.55,.98,9.78,2.82,20.02,3.57,30.19,4.02,22.65,1,45.54,.57,67.7-4.22,3.17-.69,6.38-1.51,9.27-2.93,.02-.58,.04-1.15,.04-1.73,0-1.9-.1-3.78-.29-5.63-6.28,4.01-13.35,6.84-20.6,8.65-10.69,2.67-21.79,3.26-32.81,3.18Z"/><path class="cls-12" d="M96.79,24.56c1.11-.3,2.23-.59,3.34-.9-1.5-2.16-3.15-4.2-4.94-6.12-.43,.2-.87,.37-1.3,.55,1.11,2.1,2.08,4.26,2.9,6.46Z"/><path class="cls-12" d="M105.33,77.07c.31-.72,.61-1.44,.89-2.17-3.42,1.32-7.13,2.05-10.77,2.52-1.42,.19-3.43,.42-5.74,.69-.84,1.16-1.72,2.29-2.66,3.4,4.45-.77,7.98-1.73,11.11-2.11,2.58-.31,4.59-2.01,7.17-2.32Z"/><path class="cls-12" d="M109.62,49.4c-3.17,2.02-6.54,3.74-10.04,5.18-.32,1.86-.74,3.71-1.25,5.55,.77-.16,1.54-.3,2.31-.47,3.16-.68,6.37-1.5,9.25-2.91,.07-2.45-.01-4.9-.26-7.34Z"/><path class="cls-3" d="M86.32,33.25c-.6,.02-1.14,.19-1.62,.56-.22,.17-.23,.55,.08,.63,.8,.22,1.63-.01,2.19-.63,.2-.22,.07-.59-.24-.59-.41,0-.81,0-1.22,0-.44,0-.44,.69,0,.69,.41,0,.81,0,1.22,0-.08-.2-.16-.39-.24-.59-.4,.44-.94,.61-1.52,.45,.03,.21,.05,.42,.08,.63,.38-.29,.79-.45,1.27-.47,.44-.01,.44-.7,0-.69Z"/><path class="cls-3" d="M91.94,33.41c-.34,0-.69,0-1.03,0-.23,0-.38,.22-.33,.44,.19,.82,1.51,.82,1.68-.01,.09-.43-.58-.62-.66-.18-.03,.16-.31,.18-.35,.01-.11,.15-.22,.29-.33,.44,.34,0,.69,0,1.03,0,.44,0,.44-.69,0-.69Z"/><path class="cls-3" d="M83.1,39.04c-.63-.08-1.24,.07-1.77,.42-.25,.16-.21,.54,.08,.63,.73,.22,1.45-.06,1.89-.67,.26-.36-.34-.71-.6-.35-.26,.37-.69,.48-1.11,.36,.03,.21,.05,.42,.08,.63,.44-.29,.89-.39,1.42-.33,.44,.05,.44-.64,0-.69Z"/><path class="cls-3" d="M37.66,21.94c.48,.04,.96,.07,1.43,.11,.32,.02,.43-.38,.24-.59-.3-.33-.73-.44-1.15-.28-.41,.16-.23,.83,.18,.66,.19-.08,.33-.06,.48,.1,.08-.2,.16-.39,.24-.59-.48-.04-.96-.07-1.43-.11-.44-.03-.44,.66,0,.69Z"/><path class="cls-3" d="M42.9,20.63c.47,0,.95,0,1.42-.01,.29,0,.47-.38,.24-.59-.32-.3-.72-.4-1.15-.26-.42,.14-.24,.81,.18,.66,.19-.06,.32-.06,.47,.08,.08-.2,.16-.39,.24-.59-.47,0-.95,0-1.42,.01-.44,0-.44,.69,0,.69Z"/><path class="cls-3" d="M17.76,22.99c.34,.02,.69,.04,1.03,.06,.26,.01,.44-.31,.3-.52-.32-.48-.84-.7-1.4-.55-.43,.11-.25,.78,.18,.66,.25-.07,.48,0,.62,.23,.1-.17,.2-.35,.3-.52-.34-.02-.69-.04-1.03-.06-.44-.02-.44,.67,0,.69Z"/><path class="cls-3" d="M47.16,57.14c.78,.49,1.72,.39,2.42-.18,.16-.14,.12-.45-.07-.54-.81-.39-1.66-.5-2.53-.31-.25,.05-.33,.4-.15,.58,.75,.71,1.78,.97,2.77,.66,.42-.13,.24-.8-.18-.66-.75,.23-1.53,.06-2.1-.49-.05,.19-.1,.38-.15,.58,.69-.15,1.37-.07,2,.24-.02-.18-.05-.36-.07-.54-.46,.38-1.09,.39-1.59,.07-.38-.24-.72,.36-.35,.6Z"/><path class="cls-3" d="M54.07,59.1c.05,1.03,1.52,.66,1.09-.27-.19-.4-.78-.05-.6,.35,.07-.03,.13-.05,.2-.08-.02-.44-.71-.44-.69,0Z"/><path class="cls-3" d="M96.09,52.33c.64,.51,1.69,.24,1.85-.62,.04-.2-.09-.46-.33-.44-.35,.04-.7,.07-1.05,.11-.44,.04-.44,.73,0,.69,.35-.04,.7-.07,1.05-.11-.11-.15-.22-.29-.33-.44-.06,.29-.43,.53-.7,.32-.34-.28-.83,.21-.49,.49Z"/><path class="cls-3" d="M89.32,54.32c-.22-.35-.96-.27-.91,.22,.07,.6,.72,.62,1.03,.19,.15-.2-.02-.43-.21-.51-.34-.14-.65-.16-1.01-.1-.44,.07-.25,.74,.18,.66,.24-.04,.42,0,.64,.1-.07-.17-.14-.34-.21-.51,.05,0,.11-.01,.16-.02,.03,.08,.07,.16,.1,.24l-.39,.05c.23,.38,.83,.03,.6-.35Z"/><path class="cls-3" d="M17.97,54.56c.35,0,.7,.01,1.05,.02,.31,0,.44-.37,.24-.59-.52-.55-1.28-.67-1.95-.34-.22,.11-.2,.38-.07,.54,.59,.74,1.72,.89,2.48,.32,.35-.26,0-.86-.35-.6-.53,.4-1.23,.31-1.64-.21-.02,.18-.05,.36-.07,.54,.4-.19,.82-.08,1.12,.23,.08-.2,.16-.39,.24-.59-.35,0-.7-.01-1.05-.02-.44,0-.44,.68,0,.69Z"/><path class="cls-3" d="M21.98,55.05c.54,.06,1.08,.12,1.62,.18,.23,.03,.38-.24,.33-.44-.18-.76-1-1.1-1.69-.78-.4,.18-.05,.78,.35,.6,.3-.14,.61,.08,.68,.37l.33-.44c-.54-.06-1.08-.12-1.62-.18-.44-.05-.44,.64,0,.69Z"/><path class="cls-3" d="M61.58,77.19c.66-.03,1.23-.3,1.66-.8,.18-.21,.08-.61-.24-.59l-1.61,.11c-.44,.03-.44,.72,0,.69,.54-.04,1.08-.07,1.61-.11-.08-.2-.16-.39-.24-.59-.31,.37-.69,.57-1.17,.6-.44,.02-.44,.71,0,.69Z"/><path class="cls-3" d="M83.29,70.49c-.84-.05-1.61,.22-2.25,.76-.22,.18-.06,.49,.15,.58,.63,.25,1.33,.08,1.78-.41,.2-.22,.06-.58-.24-.59-.35,0-.69-.02-1.04-.03-.44-.01-.44,.68,0,.69,.35,0,.69,.02,1.04,.03-.08-.2-.16-.39-.24-.59-.31,.33-.7,.4-1.11,.24l.15,.58c.51-.42,1.12-.59,1.77-.55,.44,.03,.44-.66,0-.69Z"/><path class="cls-3" d="M12.78,72.52c-.11,.15-.22,.3-.33,.46-.16,.22,.06,.52,.3,.52,.69,0,1.37-.01,2.06-.02,.26,0,.42-.29,.3-.52-.51-.92-1.78-1.09-2.54-.39-.33,.3,.16,.79,.49,.49,.44-.41,1.17-.27,1.45,.25,.1-.17,.2-.35,.3-.52-.69,0-1.37,.01-2.06,.02,.1,.17,.2,.35,.3,.52,.11-.15,.22-.3,.33-.46,.26-.36-.34-.7-.6-.35Z"/><path class="cls-3" d="M53.52,84.43c.6,.57,1.43,.68,2.17,.32,.19-.1,.23-.4,.07-.54-.62-.56-1.54-.64-2.22-.14-.21,.16-.23,.44,0,.6,.46,.31,.97,.39,1.5,.27,.43-.1,.25-.76-.18-.66-.36,.08-.67,0-.97-.2v.6c.43-.32,.98-.34,1.39,.03,.02-.18,.05-.36,.07-.54-.46,.23-.97,.14-1.34-.21-.32-.31-.81,.18-.49,.49Z"/><path class="cls-3" d="M91.64,61.46c.34-.05,.67-.11,1.01-.16,.44-.07,.25-.73-.18-.66-.34,.05-.67,.11-1.01,.16-.44,.07-.25,.73,.18,.66Z"/><path class="cls-3" d="M80.3,15.01c-.34-.02-.68-.04-1.02-.07-.45-.03-.43,.64,0,.69,.6,.07,1.2,.15,1.8,.22,.15,.02,.29-.12,.33-.25,.1-.32,.02-.63-.25-.84-.35-.27-.84,.22-.49,.49,.02,.06,.05,.11,.07,.16,.11-.08,.22-.17,.33-.25-.6-.07-1.2-.15-1.8-.22v.69c.34,.02,.68,.04,1.02,.07,.44,.03,.44-.66,0-.69Z"/><path class="cls-3" d="M80.92,15.12c-.45-.81-1.77-.8-2.17,.07-.08,.19-.04,.35,.12,.47,.88,.67,2.14,.4,2.77-.47,.26-.36-.34-.7-.6-.35-.43,.59-1.27,.64-1.83,.22,.04,.16,.08,.31,.12,.47,.18-.39,.76-.46,.98-.07,.22,.39,.81,.04,.6-.35Z"/><path class="cls-3" d="M85.51,15.72c-.4,0-.8,0-1.2,0v.69c.4,0,.8,0,1.2,0,.16,0,.29-.11,.33-.25,.1-.34-.03-.67-.35-.83-.4-.2-.74,.39-.35,.6,.01,.02,.02,.04,.03,.06,.11-.08,.22-.17,.33-.25-.4,0-.8,0-1.2,0-.44,0-.44,.69,0,.69,.4,0,.8,0,1.2,0,.44,0,.44-.69,0-.69Z"/><path class="cls-3" d="M71.24,85.27c-.4,0-.8,0-1.2-.01-.39,0-.47,.58-.09,.68,.7,.19,1.35,.03,1.92-.41,.15-.11,.12-.37,0-.49-.79-.76-2.12,0-1.96,1.05,.02,.11,.14,.22,.24,.24,.88,.15,1.71,.04,2.51-.35,.4-.19,.05-.79-.35-.6-.62,.3-1.3,.4-1.98,.28,.08,.08,.16,.16,.24,.24-.06-.39,.55-.63,.81-.38v-.49c-.37,.29-.81,.35-1.25,.23-.03,.23-.06,.45-.09,.68,.4,0,.8,0,1.2,.01,.44,0,.44-.68,0-.69Z"/><path class="cls-3" d="M75.03,83.63c-.12,.09-.25,.17-.37,.26-.28,.19-.18,.63,.17,.64,.34,0,.68,.02,1.02,.03,.14,0,.31-.11,.33-.25,.09-.59-.51-1.1-1.06-.74-.37,.25-.02,.84,.35,.6,.01-.01,.03-.03,.04-.04,.11-.08,.22-.17,.33-.25-.34,0-.68-.02-1.02-.03,.06,.21,.12,.43,.17,.64,.12-.09,.25-.17,.37-.26,.36-.25,.02-.85-.35-.6Z"/><path class="cls-3" d="M17.12,84.36c.29,.21,.59,.25,.93,.18,.15-.03,.25-.19,.25-.33,0-.2,0-.4,0-.6,0-.19-.16-.35-.34-.34-.34,0-.69,0-1.03,0-.22,0-.4,.22-.33,.44,.18,.61,.93,.92,1.46,.52,.35-.26,0-.86-.35-.6-.16,.12-.38,.12-.45-.11-.11,.15-.22,.29-.33,.44,.34,0,.69,0,1.03,0-.11-.11-.23-.23-.34-.34,0,.2,0,.4,0,.6,.08-.11,.17-.22,.25-.33-.16,.04-.3,0-.4-.11-.36-.27-.7,.33-.35,.6Z"/><path class="cls-14" d="M33.51,105.59c6.6,2.81,13.87,4.37,21.49,4.37,30.35,0,54.95-24.6,54.95-54.95S85.35,.05,55,.05c-6.91,0-13.52,1.29-19.61,3.62C49.26-1.13,64.99-.41,78.94,6.99c26.57,14.09,36.59,46.97,22.37,73.44-13.16,24.49-42.44,34.89-67.8,25.16Z"/><path class="cls-15" d="M.05,55c0,8.12,1.78,15.83,4.94,22.77,19.64,5.12,39.75-1.37,54.64-17.17,15.28-16.22,20.85-37.94,13.7-57.41C67.59,1.16,61.43,.05,55,.05,24.65,.05,.05,24.65,.05,55Z"/><g class="cls-20"><path class="cls-1" d="M17.38,18.09c13.87-13.33,36.04-15.92,47.66-3.98,11.62,11.93,1.06,22.71-12.21,39.19-10.89,13.53-29.62,24.86-41.24,12.92C-.03,54.28,3.51,31.42,17.38,18.09Z"/></g></g></g></svg>