<?xml version="1.0" encoding="UTF-8"?><svg xmlns="http://www.w3.org/2000/svg" xmlns:xlink="http://www.w3.org/1999/xlink" viewBox="0 0 110 110"><defs><style>.cls-1{fill:url(#_Áåçûìÿííûé_ãðàäèåíò_883);opacity:.49;}.cls-2{fill:#ea490c;}.cls-3{isolation:isolate;}.cls-4{fill:#b4000c;}.cls-5{fill:#d52b0c;}.cls-6{fill:#a6000a;}.cls-7{fill:url(#radial-gradient);mix-blend-mode:multiply;}.cls-8{fill:#d40d00;}.cls-9{mix-blend-mode:screen;opacity:.24;}.cls-9,.cls-10{fill:#fff;}.cls-11{fill:#cb1c00;}.cls-10{opacity:.15;}.cls-12{fill:#ff5900;}.cls-13{fill:#cc000c;}.cls-14{filter:url(#luminosity-noclip-2);}.cls-15{mask:url(#mask-1);}.cls-16{mask:url(#mask);}.cls-17{fill:#e24100;}</style><filter id="luminosity-noclip-2" x="4.6" y="6.44" width="65.43" height="64.78" color-interpolation-filters="sRGB" filterUnits="userSpaceOnUse"><feFlood flood-color="#fff" result="bg"/><feBlend in="SourceGraphic" in2="bg"/></filter><filter id="luminosity-noclip-3" x="8247.11" y="-8246.74" width="-32766" height="32766" color-interpolation-filters="sRGB" filterUnits="userSpaceOnUse"><feFlood flood-color="#fff" result="bg"/><feBlend in="SourceGraphic" in2="bg"/></filter><mask id="mask-1" x="8247.11" y="-8246.74" width="-32766" height="32766" maskUnits="userSpaceOnUse"/><radialGradient id="radial-gradient" cx="-111.42" cy="-156.55" fx="-111.42" fy="-156.55" r="59.65" gradientTransform="translate(168.92 -98.65) rotate(-88.17) scale(.89 .91) skewX(12.18)" gradientUnits="userSpaceOnUse"><stop offset="0" stop-color="#fff"/><stop offset=".77" stop-color="#000"/></radialGradient><mask id="mask" x="4.6" y="6.44" width="65.43" height="64.78" maskUnits="userSpaceOnUse"><g class="cls-14"><g class="cls-15"><path class="cls-7" d="M17.37,18.06c13.87-13.33,36.04-15.92,47.66-3.98,11.62,11.93,1.06,22.71-12.21,39.19-10.9,13.53-29.62,24.86-41.24,12.92S3.5,31.39,17.37,18.06Z"/></g></g></mask><radialGradient id="_Áåçûìÿííûé_ãðàäèåíò_883" cx="-111.42" cy="-156.55" fx="-111.42" fy="-156.55" r="59.65" gradientTransform="translate(168.92 -98.65) rotate(-88.17) scale(.89 .91) skewX(12.18)" gradientUnits="userSpaceOnUse"><stop offset="0" stop-color="#fff"/><stop offset=".77" stop-color="#f3f9f7"/></radialGradient></defs><g class="cls-3"><g id="Layer_1"><ellipse class="cls-2" cx="55" cy="55" rx="54.99" ry="54.97"/><path class="cls-5" d="M13.53,18.97C29.44,.96,56.84-1.62,75.81,13.49c19.59,15.6,22.78,44.15,7.14,63.77-15.64,19.62-44.2,22.88-63.79,7.28C.19,69.43-3.41,42.16,10.61,22.63-6.71,46.32-2.45,79.63,20.67,98.05c23.73,18.91,58.34,14.96,77.3-8.82,18.96-23.77,15.08-58.37-8.65-77.28C66.2-6.47,32.76-3.19,13.53,18.97Z"/><path class="cls-6" d="M85.18,83.67c-17.7,18.93-45.4,22.88-67.46,11.87,22.22,20.16,56.74,18.99,77.41-2.96,20.83-22.11,19.56-57.21-2.63-77.85-.25-.23-.34,0-.59-.23,13.16,21.01,11.38,49.78-6.73,69.15Z"/><path class="cls-4" d="M61.64,60.3c-1.91,0-3.83,.3-5.64,.92-1.62,.55-3.43,1.34-4.96,.58-.35-.17-.65-.41-.93-.68,.3-.61,.58-1.23,.77-1.88,.61-2.03,.07-4.72-1.93-5.4-1.98-.68-3.91,.95-5.75,1.97-3.22,1.79-7.4,1.72-10.56-.18-3.16-1.9-5.19-5.56-5.12-9.24,.04-2.11,.4-4.83-1.49-5.76-1.7-.83-3.6,.75-4.58,2.36-.99,1.61-1.87,3.58-3.68,4.12-1.69,.51-3.54-.55-4.51-2.02s-1.26-3.28-1.54-5.03c-.31-1.98-.61-4.02-.11-5.96,.5-1.92,1.75-3.54,2.92-5.15,1.17-1.6,2.32-3.33,2.57-5.3,.25-1.97-.69-4.23-2.57-4.85l.18-1.19C6.99,25.92,1.83,36.59,.42,48.43c-.2,2.25-.31,4.53-.31,6.81,0,17.31,8.1,32.69,20.64,42.75,.18,.15,.37,.29,.56,.44,.34,.27,.69,.54,1.04,.8,.61,.45,1.22,.89,1.85,1.32,.06,.04,.11,.07,.17,.11,1.93,1.3,3.95,2.46,6.04,3.51,.51-.26,.9-.47,1.4-.78,1.46-.91,2.93-2.38,2.62-4.08-.2-1.1-1.11-1.93-1.5-2.98-.55-1.46-.02-3.07,.2-4.61,.22-1.54-.07-3.45-1.5-4.07-2.38-1.03-3.21,1.69-4.88,2.67-2.61,1.52-6.49-1.32-8.02-3.31-2.59-3.36-3.56-7.88-2.77-12.04s2.87-5.33,7.11-5.6c2.81-.18,5.51,1.08,7.95,2.49,2.56,1.48,4.83,3.01,7.72,3.35l.16,.38c1.08,.21,2.22,.23,3.31,.04,2.14,.29,4.3,.4,5.99-1.29,1.5-1.5,1.74-3.88,3.07-5.53,2.69-3.33,8.32-2.28,11.54-5.09,.8-.69,1.4-1.94,.74-2.76-.43-.54-1.22-.63-1.92-.63Z"/><path class="cls-13" d="M94.73,43.36c1.27-.86,3.34-.84,4.05,.53,.59,1.14,.18,2.94,1.36,3.43,.63,.26,1.39-.12,1.78-.69,.39-.57,.5-1.27,.6-1.95,.31-2.08,.62-4.15,.93-6.23,.99,.01,1.48,1.18,1.75,2.14,.26,.96,.83,2.12,1.82,2.05,.23-.02,.42-.1,.59-.22-2.41-9.89-7.49-18.73-14.44-25.71,.95,2.14,1.81,4.31,2.38,6.58,.92,3.64,1.07,7.57-.25,11.08-1.49,3.96-4.76,7.23-6.41,11.02-.74,1.72,1.57,3.11,2.75,1.66,.05-.06,.1-.12,.14-.18,.94-1.22,1.69-2.64,2.96-3.5Z"/><path class="cls-8" d="M54.19,.51c-2.94,0-5.83,.24-8.64,.68,2.18,.09,4.33,.53,6.13,1.71,2.64,1.73,4.16,5.47,2.53,8.16-.65,1.07-1.68,1.83-2.48,2.79s-1.39,2.28-.92,3.43c.78,1.87,3.6,1.86,4.85,3.45,1.18,1.5,.49,3.68-.24,5.45-.72,1.77-1.37,3.98-.13,5.44,1.04,1.22,3.02,1.23,4.43,.46,1.41-.77,2.38-2.13,3.31-3.45,.26,1.82,.56,3.74,1.73,5.16,1.17,1.42,3.53,2.03,4.85,.75,1.08-1.04,1.25-3.03,2.67-3.51,.6-.2,1.25-.05,1.89-.04,2.41,.05,4.38-1.87,5.81-3.81,2.94-3.99,4.92-8.67,5.74-13.55,.16-.97,.27-1.97,.31-2.96C77.04,4.29,66.06,.51,54.19,.51Z"/><path class="cls-13" d="M12.18,78.62c-.61,.26-1.32,.15-1.95-.07-3.8-1.29-5.51-5.72-5.92-9.71-.42-3.99-.08-8.19-1.79-11.82-.49-1.03-1.13-1.99-1.45-3.08-.46-1.61-.15-3.33,.17-4.98l1.81-9.47c.19-.99,.54-2.16,1.51-2.43,1.35-.38,2.33,1.31,2.52,2.71,.4,2.99-.31,6.14,.68,8.99,1.44,4.12,6.75,6.36,10.7,4.52-.49,.52-.05,1.46,.62,1.7,.67,.24,1.41,0,2.07-.26s1.35-.58,2.06-.49c1.05,.13,1.79,1.11,2.18,2.1,.39,.98,.57,2.06,1.12,2.96,1.19,1.93,3.69,2.47,5.83,3.24s4.45,2.5,4.09,4.74c-.2,1.23-1.22,2.22-2.4,2.63-1.17,.41-2.47,.33-3.69,.05-2.82-.65-5.3-2.29-8.06-3.17-2.76-.87-6.21-.75-8,1.53-1.23,1.56-1.34,3.74-1.04,5.71,.13,.85,.32,1.7,.24,2.55-.09,.85-.53,1.73-1.32,2.07Z"/><path class="cls-11" d="M86.87,25.65c1.04,3.32-2.67,6.6-2.06,10.03,.14,.79,.55,1.57,1.25,1.98,1.23,.72,2.82,.05,3.9-.89,2.02-1.74,3.2-4.37,3.36-7.04,.16-2.66-.67-5.35-2.14-7.58-.67-1.02-1.54-1.99-2.7-2.36-1.16-.37-2.65,.08-3.08,1.22-.29,.78-.04,1.66,.34,2.41,.38,.74,.88,1.43,1.13,2.23Z"/><path class="cls-17" d="M94.25,50.84c-.51-1.28-1.99-2.28-3.28-1.79-1.33,.5-1.73,2.13-2.15,3.49-.65,2.14-1.79,4.14-3.29,5.8-.5,.56-1.07,1.09-1.78,1.34-.71,.25-1.59,.14-2.07-.43-.83-.98-.08-2.46,.64-3.53,1.95-2.94,3.53-6.13,4.68-9.47,.29-.85,.56-1.73,.47-2.62s-.62-1.79-1.48-2.05c-1.27-.39-2.54,.79-2.94,2.05s-.25,2.64-.49,3.95l-.71-.34c-4.11,10.82-14.19,19.14-25.59,21.13-1.06,.18-2.21,.36-2.95,1.14-.9,.95-.86,2.41-1.04,3.7-.44,3.13-2.6,5.97-5.51,7.23-2.91,1.25-6.45,.88-9.03-.96-1.36-.97-2.85-2.39-4.42-1.83-1.23,.44-1.75,2.03-1.36,3.27,.39,1.25,1.45,2.17,2.57,2.84,2.21,1.31,4.87,1.86,7.42,1.52,1.76-.23,3.74-.81,5.16,.25,.92,.69,1.3,1.88,2.07,2.73,1.35,1.51,3.63,1.72,5.66,1.61,1.76-.1,3.59-.39,5.05-1.39,1.46-1,2.44-2.87,1.94-4.56-.29-.97-1.02-1.79-1.22-2.78-.24-1.2,.37-2.45,1.26-3.29,.89-.84,2.04-1.36,3.16-1.86,.8-.36,1.72-.72,2.54-.39,1.33,.54,1.37,2.41,1.06,3.81s-.67,3.12,.4,4.09c1.1,1.01,2.86,.41,4.17-.3,10.67-5.78,18.6-16.4,21.09-28.28,.28-1.35,.49-2.8-.01-4.08Z"/><path class="cls-12" d="M47.37,82.35c-2.09,1.27-4.88,1.29-7,.06-1.61-.95-2.93-2.59-4.79-2.81-.5-.06-1.04,0-1.46,.27-.42,.27-.71,.79-.61,1.29,.14,.73,.96,1.08,1.67,1.29,2.51,.76,5.1,1.31,7.72,1.37,2.54,.06,5.07-.33,7.59-.72,.5-.29,.46-1.11,.02-1.48s-1.11-.36-1.65-.15c-.54,.21-1,.57-1.5,.87Z"/><path class="cls-12" d="M79.15,34.73c-2.99,2.39-5.27,5.65-6.51,9.28-.27,.8-.46,1.79,.12,2.4,.51,.54,1.38,.53,2.1,.35,2.19-.53,4.01-2.12,5.21-4.02s1.81-4.12,2.22-6.33c.14-.78,.21-1.73-.41-2.24-.78-.65-1.95-.08-2.73,.55Z"/><path class="cls-13" d="M62.07,.49c2.89,4.42,2.91,10.75-.4,14.94-.81,1.03-1.8,1.96-2.22,3.2-.42,1.24,.04,2.91,1.31,3.23,2.21,.56,3.56-3.22,5.83-3,1.55,.15,2.24,2.11,2.03,3.65s-.92,3.05-.71,4.59,2.09,2.96,3.28,1.96c.92-.77,.63-2.23,.94-3.39,.66-2.51,3.82-3.18,5.95-4.66,2.88-2,3.95-5.68,4.84-9.07,.33-1.25,.64-2.57,.74-3.86-6.44-3.94-13.76-6.58-21.59-7.59Z"/><path class="cls-12" d="M33.27,50.39c-.9,1.34,.3,3.28,1.86,3.69,1.56,.41,3.19-.23,4.64-.95,1.45-.71,2.94-1.53,4.55-1.5,.82,.02,1.73,.24,2.41-.22,.61-.42,.78-1.3,.56-2-.22-.71-.75-1.28-1.31-1.76-2.53-2.19-6.09-3.13-9.38-2.49-1.76,.34-3.53,1.21-4.44,2.76s-.45,1.58,1.11,2.47Z"/><path class="cls-12" d="M96.7,45.09c-1.21,.51-1.04,2.25-.78,3.54,.98,4.85,.14,10.04-2.33,14.32-.67,1.17-1.47,2.28-1.98,3.53-.51,1.25-.71,2.7-.17,3.94l.71-.09c2.04-3.44,4.08-6.91,5.52-10.64,1.44-3.73,2.26-7.78,1.76-11.75-.1-.76-.26-1.55-.72-2.16-.47-.61-1.32-.99-2.03-.69Z"/><path class="cls-5" d="M67.08,84.06c.19,1.43,.13,2.96-.56,4.23s-2.12,2.21-3.55,1.99c-.25-.04-.51-.12-.67-.32-.36-.45,.05-1.09,.37-1.57,1.46-2.14,1.34-5.23-.29-7.24,.61-1.05,2.25-1.08,3.2-.32,.95,.76,1.33,2.03,1.49,3.23Z"/><path class="cls-5" d="M53.91,53.62c-1.03,.8-1.79,1.94-2.12,3.2-.2,.77-.19,1.73,.45,2.21,.5,.38,1.2,.32,1.83,.23,2.74-.36,5.6-.77,7.84-2.39,2.24-1.62,3.55-4.87,2.12-7.23-1.44-2.38-5-2.68-7.42-1.31-2.42,1.37-.49,3.58-2.69,5.28Z"/><path class="cls-10" d="M.01,55c0,8.14,1.78,15.86,4.96,22.81,19.63,5.15,39.74-1.32,54.63-17.12,15.32-16.26,20.87-38.08,13.57-57.58C67.48,1.12,61.37,.03,55,.03,24.63,.03,.01,24.64,.01,55Z"/><g class="cls-16"><path class="cls-1" d="M17.37,18.06c13.87-13.33,36.04-15.92,47.66-3.98,11.62,11.93,1.06,22.71-12.21,39.19-10.9,13.53-29.62,24.86-41.24,12.92S3.5,31.39,17.37,18.06Z"/></g><path class="cls-9" d="M109.99,55C109.99,24.64,85.37,.03,55,.03c-3.92,0-7.73,.42-11.42,1.19,11.68-2.09,24.12-.45,35.41,5.54,26.67,14.13,36.76,47.03,22.54,73.48-14.22,26.45-47.36,36.44-74.03,22.3-.36-.19-.72-.4-1.08-.59,7.14,4.35,15.33,7.11,24.11,7.83,.33,.03,.66,.05,.99,.08,.39,.02,.78,.04,1.17,.06,.66,.03,1.33,.05,2,.05,.11,0,.22,0,.34,0,30.34-.03,54.93-24.63,54.93-54.97Z"/><path class="cls-4" d="M37.12,95.86c1.82,.07,3.28,1.46,4.74,2.56,2.89,2.2,6.42,3.55,10.04,3.84,0,.4,0,.8,0,1.21-5.85,1.33-12.08,.9-17.69-1.21-2.27-.86-4.79-2.58-4.54-4.99,2.35,1.07,4.86-1.51,7.44-1.41Z"/></g></g></svg>