<?xml version="1.0" encoding="UTF-8"?><svg xmlns="http://www.w3.org/2000/svg" xmlns:xlink="http://www.w3.org/1999/xlink" viewBox="0 0 110 110"><defs><style>.cls-1{fill:#995d2e;}.cls-2{fill:#b36225;}.cls-3{isolation:isolate;}.cls-4{fill:url(#_Áåçûìÿííûé_ãðàäèåíò_895);opacity:.57;}.cls-5{fill:url(#radial-gradient);}.cls-5,.cls-6{mix-blend-mode:multiply;}.cls-7{mix-blend-mode:screen;opacity:.24;}.cls-7,.cls-8{fill:#fff;}.cls-8{opacity:.15;}.cls-9{fill:#bd6420;opacity:.54;}.cls-10{filter:url(#luminosity-noclip-2);}.cls-11{mask:url(#mask-1);}.cls-12{mask:url(#mask);}.cls-13{fill:#c97832;}.cls-14{fill:#eaa753;}.cls-6{fill:#b89e8f;}</style><filter id="luminosity-noclip-2" x="4.61" y="6.48" width="65.43" height="64.77" color-interpolation-filters="sRGB" filterUnits="userSpaceOnUse"><feFlood flood-color="#fff" result="bg"/><feBlend in="SourceGraphic" in2="bg"/></filter><filter id="luminosity-noclip-3" x="8247.16" y="-8246.72" width="-32766" height="32766" color-interpolation-filters="sRGB" filterUnits="userSpaceOnUse"><feFlood flood-color="#fff" result="bg"/><feBlend in="SourceGraphic" in2="bg"/></filter><mask id="mask-1" x="8247.16" y="-8246.72" width="-32766" height="32766" maskUnits="userSpaceOnUse"/><radialGradient id="radial-gradient" cx="-111.19" cy="-156.61" fx="-111.19" fy="-156.61" r="59.65" gradientTransform="translate(168.99 -98.4) rotate(-88.17) scale(.89 .91) skewX(12.18)" gradientUnits="userSpaceOnUse"><stop offset=".23" stop-color="#f4f4f4"/><stop offset=".67" stop-color="#515151"/><stop offset="1" stop-color="#000"/></radialGradient><mask id="mask" x="4.61" y="6.48" width="65.43" height="64.77" maskUnits="userSpaceOnUse"><g class="cls-10"><g class="cls-11"><path class="cls-5" d="M17.38,18.1c13.87-13.32,36.04-15.91,47.66-3.98,11.62,11.93,1.06,22.7-12.21,39.18-10.89,13.53-29.62,24.85-41.24,12.92C-.03,54.29,3.51,31.43,17.38,18.1Z"/></g></g></mask><radialGradient id="_Áåçûìÿííûé_ãðàäèåíò_895" cx="-111.19" cy="-156.61" fx="-111.19" fy="-156.61" r="59.65" gradientTransform="translate(168.99 -98.4) rotate(-88.17) scale(.89 .91) skewX(12.18)" gradientUnits="userSpaceOnUse"><stop offset=".23" stop-color="#fdf5f6"/><stop offset=".67" stop-color="#f7ebc2"/><stop offset="1" stop-color="#f3f9f7"/></radialGradient></defs><g class="cls-3"><g id="Layer_1"><path class="cls-14" d="M110,55.01c0,30.37-24.62,54.99-55,54.99S0,85.38,0,55.01c0-6.11,1.01-12.21,3.01-17.98,.99-2.85,2.21-5.62,3.65-8.27C16.2,11.24,35,.02,55,.02,85.38,.02,110,24.64,110,55.01Z"/><path class="cls-13" d="M82.76,102.48c-.03-1-.17-2-.44-2.97-1.03-3.72-3.8-6.91-7.34-8.45-2.89-1.25-6.3-1.49-8.71-3.52-2.1-1.76-3.02-4.54-3.64-7.21s-1.06-5.47-2.53-7.78c-1.47-2.31-4.35-4.02-6.95-3.16-2.27,.75-3.6,3.2-3.92,5.58s.13,4.78,.24,7.17c.18,4.14-.7,8.27-2.14,12.15-1.74,4.69-4.7,9.41-9.44,10.99-.99,.33-2.06,.54-3.04,.89,6.24,2.46,13.04,3.83,20.15,3.83,10.13,0,19.61-2.75,27.76-7.52Z"/><path class="cls-13" d="M71.88,35.19c2.56,.18,5.23-.12,7.48-1.38,2.24-1.25,3.99-3.58,4.07-6.15,.08-2.57-1.8-5.2-4.35-5.53-3.55-.46-3.93,1.85-7.01,3.68-1.44,.86-2.93,1.76-3.89,3.14-.96,1.38-1.24,3.38-.19,4.69,.89,1.12,2.45,1.44,3.88,1.54Z"/><path class="cls-13" d="M47.4,69.33c-.12-.97-.7-1.82-1.49-2.39-1.44-1.02-3.27-2.04-5.12-1.81-.88,.11-1.64,.02-2.84,.06-1.95,.06-3.79,1.17-4.52,2.98-.2,.5-.27,1.01-.19,1.66,.21,1.64,1.18,3.07,2.18,4.38,1.01,1.31,2.1,2.61,2.61,4.18,.46,1.39,.43,2.9,.91,4.28s1.77,2.69,3.21,2.43c1.64-1.39,1.75-3.84,1.65-5.99-.09-2.14-.18-4.54,1.24-6.15,.97-1.1,2.58-1.73,2.35-3.63Z"/><path class="cls-13" d="M36.38,54.6c-1.41,.71-1.96,2.72-1.11,4.05,.65,1.02,2,1.54,3.17,1.21,1.52-.43,2.44-2.29,1.87-3.76s-2.52-2.21-3.92-1.5Z"/><path class="cls-13" d="M29.4,6.43c-.23,.47-.45,.95-.66,1.42-.85,1.88-1.68,3.84-1.77,5.9-.09,2.06,.71,4.29,2.47,5.37,1.79,1.09,4.14,.81,5.97,1.81,2.97,1.61,3.36,5.64,5,8.6,2.6,4.7,8.8,6.61,14.02,5.32,5.22-1.29,9.46-5.2,12.42-9.69,1.98-3.01,3.59-6.42,6.5-8.54,4.03-2.93,10.14-3.09,13.41-6.48C77.8,3.77,66.84,.02,55,.02,45.98,.02,37.2,2.31,29.4,6.43Z"/><path class="cls-13" d="M105.39,38.96c.6-.7,1.07-1.49,1.45-2.32-2.2-6.2-5.48-11.9-9.61-16.85-2.57,.73-5.13,1.55-7.42,2.92-2.68,1.6-5,4.08-5.71,7.12-.43,1.83-.27,3.82-1.1,5.51-1.78,3.65-6.75,3.9-10.8,4.06-2.5,.1-5.73,1.12-5.7,3.62,.02,1.71,1.68,2.91,3.24,3.59,4.4,1.92,9.41,2.05,14.14,1.22,4.73-.83,9.24-2.56,13.72-4.28,2.84-1.09,5.81-2.27,7.79-4.59Z"/><path class="cls-13" d="M43.14,49.36c2.4,.36,4.96,.62,7.14-.44s3.65-3.92,2.39-5.99c-.9-1.47-2.74-2.01-4.41-2.42-1.78-.44-3.77-.85-5.37,.05-1.43,.81-2.13,2.46-2.73,3.99-.38,.98-.77,2.09-.34,3.05,.53,1.19,2.02,1.56,3.32,1.75Z"/><path class="cls-13" d="M63.97,40.21c.52-.34,1.21-.48,1.56-.99,.52-.78-.09-1.86-.88-2.35-1.91-1.19-4.6-.35-5.98,1.41-1.39,1.77-1.67,4.18-1.38,6.41,.14,1.09,.43,2.21,1.13,3.05,.7,.85,1.9,1.36,2.94,.98,1.3-.85,1.37-2.7,1.3-4.26-.07-1.56,0-3.41,1.31-4.25Z"/><path class="cls-13" d="M86.69,65.12c1.7-1.22,3.68-2.02,5.34-3.28,1.67-1.27,3.05-3.23,2.77-5.31-.33-2.48-2.95-4.11-5.45-4.33s-4.95,.58-7.41,1.09c-4.13,.85-8.44,.88-12.58,.07-2.22-.43-4.42-1.11-6.68-1.05-2.26,.06-4.67,1.03-5.68,3.05-1.29,2.58,.17,5.73,2.19,7.79,2.02,2.06,4.6,3.56,6.32,5.87,1.86,2.51,2.5,5.69,3.31,8.71,.81,3.02,1.98,6.16,4.49,8.03s6.72,1.7,8.2-1.05c1.21-2.24,.19-4.96-.12-7.48-.56-4.58,1.55-9.4,5.3-12.09Z"/><path class="cls-13" d="M32.33,105.11c.7-1.27,1.19-2.69,1.57-4.1,1.06-3.98,1.41-8.15,1.02-12.25-.14-1.46-.38-2.95-1.13-4.21-.74-1.26-2.08-2.26-3.55-2.23-2.45,.05-3.89,2.63-5.44,4.52-2.62,3.18-6.84,4.88-10.94,4.65,5.1,5.75,11.38,10.41,18.47,13.62Z"/><path class="cls-13" d="M12.93,90.41h.03s-.03,0-.03,0Z"/><path class="cls-13" d="M49.2,63.52c1.23,.61,2.81-.09,3.52-1.27,.71-1.17,.69-2.66,.34-3.99-.44-1.7-1.74-3.46-3.49-3.37-1.35,.07-2.44,1.3-2.71,2.63-.27,1.33,.11,2.7,.66,3.94,.37,.82,.86,1.66,1.67,2.06Z"/><path class="cls-13" d="M110,55.01c0-3.25-.3-6.43-.84-9.52-1.42,.66-2.45,2.36-3.04,3.93-1.68,4.42-2.35,9.16-3.94,13.61-1.59,4.45-4.4,8.81-8.78,10.6-2.34,.95-5.15,1.21-6.76,3.15-2.12,2.54-.95,6.36,.31,9.42,1,2.42,2.1,4.97,4.24,6.48,.84,.59,1.77,.97,2.75,1.17,9.93-9.95,16.08-23.68,16.08-38.85Z"/><path class="cls-13" d="M35.39,28.68c-.92-.43-2.16-.68-2.83,.07-.32,.36-.42,.86-.5,1.34-.28,1.79-.33,3.7,.46,5.34,.79,1.63,2.64,2.86,4.4,2.43,1.98-.48,3.03-2.91,2.51-4.87-.52-1.97-2.21-3.44-4.05-4.31Z"/><path class="cls-13" d="M12.95,90.41l4.28-.57c-1.43-.53-2.98-.22-4.28,.57Z"/><path class="cls-13" d="M23.74,21.19c-1.38,.65-1.86,2.68-.91,3.87,.79,.98,2.35,1.22,3.4,.52,1.04-.71,1.4-2.25,.78-3.34-.62-1.09-2.13-1.58-3.27-1.04Z"/><path class="cls-13" d="M20.1,24.95h-3.28c-.28,0-.51-.23-.51-.51s.23-.51,.51-.51h3.28c.28,0,.51,.23,.51,.51s-.23,.51-.51,.51Z"/><path class="cls-13" d="M22.53,20.59c-.21,0-.41-.14-.48-.35-.34-1.03-1.02-1.92-1.92-2.52-.23-.15-.3-.47-.14-.7,.15-.23,.47-.3,.7-.14,1.09,.72,1.92,1.8,2.33,3.05,.09,.27-.06,.55-.32,.64-.05,.02-.11,.03-.16,.03Z"/><path class="cls-13" d="M31.58,23.86h-2.19c-.28,0-.51-.23-.51-.51s.23-.51,.51-.51h2.19c.28,0,.51,.23,.51,.51s-.23,.51-.51,.51Z"/><path class="cls-13" d="M40.86,53.64c-.11,0-.23-.04-.32-.12-.21-.18-.24-.5-.06-.71l1.12-1.34c.18-.22,.5-.24,.71-.06,.21,.18,.24,.5,.06,.71l-1.12,1.34c-.1,.12-.24,.18-.39,.18Z"/><path class="cls-13" d="M44.15,59.67c-.06,0-.13-.01-.19-.04l-1.37-.54c-.26-.1-.39-.4-.28-.66,.1-.26,.4-.39,.66-.28l1.37,.54c.26,.1,.39,.4,.28,.66-.08,.2-.27,.32-.47,.32Z"/><path class="cls-13" d="M26.93,30.69c-.28,0-.51-.23-.51-.51v-2.19c0-.28,.23-.51,.51-.51s.51,.23,.51,.51v2.19c0,.28-.23,.51-.51,.51Z"/><path class="cls-13" d="M25.07,18.44c.09-.73,.18-1.46,.27-2.19l-.27,2.19Z"/><path class="cls-13" d="M34.59,64.58s-.08,0-.12-.02c-.27-.07-.44-.34-.37-.61l.55-2.19c.07-.27,.34-.44,.61-.37,.27,.07,.44,.34,.37,.61l-.55,2.19c-.06,.23-.26,.38-.49,.38Z"/><path class="cls-13" d="M35.43,52.81c-.18,0-.35-.09-.44-.26l-.48-.86c-.14-.24-.05-.55,.2-.69,.24-.14,.55-.05,.69,.2l.48,.86c.14,.24,.05,.55-.2,.69-.08,.04-.16,.06-.24,.06Z"/><path class="cls-13" d="M40.28,64.72c-.22,0-.43-.15-.49-.38l-.54-2.02c-.07-.27,.09-.55,.36-.62,.27-.07,.55,.09,.62,.36l.54,2.02c.07,.27-.09,.55-.36,.62-.04,.01-.09,.02-.13,.02Z"/><path class="cls-1" d="M27.2,22.82c0-.06,0-.13-.01-.19-.05-.14-.1-.27-.17-.39-.62-1.09-2.13-1.58-3.27-1.04-.5,.24-.89,.66-1.12,1.16-.01,.08-.03,.16-.04,.24,2.05-2.42,4.43-.36,4.62,.23Z"/><path class="cls-2" d="M50.75,61.65c.93-.29,1.62-1.2,1.66-2.17,.04-.97-.58-1.93-1.48-2.3-1.41-.57-3.21,.59-3.27,2.11-.06,1.52,1.65,2.82,3.09,2.36Z"/><path class="cls-2" d="M78.51,24.31c-1.37-.1-2.43,1.12-3.38,2.11-1.2,1.25-2.6,2.31-4.12,3.14-.63,.34-1.29,.65-1.77,1.18-.48,.53-.71,1.36-.33,1.96,.42,.67,1.34,.76,2.13,.77,2.18,.02,4.44-.13,6.39-1.11s3.54-2.97,3.44-5.15c-.06-1.36-1-2.8-2.36-2.9Z"/><path class="cls-2" d="M37.73,92.46c-.3,1.8-.59,3.61-.86,5.42-.07,.5-.12,1.08,.23,1.44,.46,.48,1.26,.24,1.85-.07,1.96-1.06,3.58-2.73,4.58-4.71,.69-1.37,1.08-2.98,.62-4.44-.47-1.46-2.01-2.63-3.5-2.29-1.9,.43-2.59,2.73-2.91,4.65Z"/><path class="cls-2" d="M63.76,38.54c-1.86-.33-3.87,.89-4.44,2.69-.57,1.8,.38,3.95,2.1,4.75-.08-2.65,.76-5.31,2.34-7.43Z"/><path class="cls-2" d="M39.45,32.99c-.52-1.97-2.21-3.44-4.05-4.31-.92-.43-2.16-.68-2.83,.07-.32,.36-.42,.86-.5,1.34-.06,.39-.11,.79-.14,1.19,1.48-.45,3.11-.42,4.56,.14,1.22,.47,2.29,1.31,3.08,2.36-.02-.27-.05-.54-.12-.8Z"/><path class="cls-2" d="M37.4,71.86c.45,.95,1.5,1.45,2.15,2.28,.96,1.22,.91,2.91,1.03,4.45,.12,1.54-.17,1.81,1.28,2.37-.45-2.94,.58-4.49,1.46-7.34,.31-1.02,.71-2.02,.85-3.08,.13-1.06-.04-2.21-.75-3.01-.79-.89-2.15-1.15-3.28-.79-1.13,.37-2.03,1.29-2.55,2.37-.41,.86-.59,1.89-.18,2.75Z"/><path class="cls-2" d="M52.68,42.92c-.9-1.47-2.74-2.01-4.41-2.42-1.78-.44-3.77-.85-5.37,.05-1.08,.61-1.74,1.7-2.25,2.85,1.76-1.23,3.99-1.75,6.14-1.6,2.24,.16,4.39,1,6.29,2.19-.07-.37-.2-.73-.4-1.07Z"/><path class="cls-2" d="M93.15,64.88c-.77,.62-.64,2.02,.23,2.49,.87,.46,2.11-.21,2.19-1.2,.08-.98-1.03-1.86-1.97-1.54l-.46,.25Z"/><path class="cls-2" d="M88.64,72.01c.2,.83,.93,1.51,1.77,1.64s1.75-.28,2.2-1c.75-1.21-.1-3.07-1.5-3.29s-2.79,1.27-2.46,2.65Z"/><path class="cls-2" d="M67.31,51.12c.64-.94,.73-2.24,.22-3.25-1.11-.83-3,.04-3.09,1.43-.09,1.38,1.66,2.5,2.88,1.83Z"/><path class="cls-2" d="M54.09,64.55c-.18,.91,.53,1.89,1.45,2.01,1.3,.16,2.36-1.61,1.59-2.68-.77-1.06-2.79-.62-3.04,.67Z"/><path class="cls-13" d="M28.46,77.97c-.24,.4-.42,.92-.18,1.32,.2,.33,.62,.46,1,.55,1.9,.47,3.8,.94,5.7,1.42,.95-.99,1.06-2.65,.33-3.82-.72-1.17-2.17-1.81-3.54-1.66s-2.61,1.02-3.31,2.2Z"/><path class="cls-13" d="M61.95,70.25c.6-.19,.91-.98,.6-1.52-.31-.54-1.15-.68-1.61-.26-.46,.42-.41,1.27,.09,1.63,.26,.19,.61,.24,.92,.15Z"/><path class="cls-13" d="M80.64,89.32c0,1.48,.92,2.99,2.34,3.45,1.41,.46,3.17-.37,3.54-1.81,.19-.75,0-1.56-.39-2.22-.82-1.37-2.61-2.09-4.13-1.61-1.52,.48-1.35,.6-1.36,2.2Z"/><path class="cls-13" d="M86.36,14.15c-.56,.06-1.09,.35-1.45,.78-.31,.37-.49,.83-.54,1.31-.13,1.13,.47,2.26,1.36,2.96,.99,.79,2.53,1.04,3.51,.24,.72-.58,.98-1.61,.76-2.51-.21-.9-.84-1.66-1.61-2.18-.6-.41-1.31-.68-2.03-.61Z"/><path class="cls-2" d="M81.83,18.37c.25-.43,.06-1-.31-1.34-.36-.34-.86-.48-1.34-.61-.65-.17-1.53-.21-1.8,.4-.16,.35-.01,.78,.25,1.06,.26,.28,.62,.45,.97,.61,.37,.17,.76,.34,1.16,.37,.41,.02,.85-.13,1.06-.49Z"/><path class="cls-2" d="M84.67,23.47c.34,.27,.84,.3,1.21,.08,.37-.22,.58-.68,.5-1.11-.09-.48-.53-.87-1.02-.88-.49-.02-.96,.34-1.07,.81-.1,.4,.06,.84,.38,1.1Z"/><path class="cls-2" d="M41.82,34.74c-.99,.47-1.16,2.06-.3,2.73,.6,.47,1.54,.43,2.1-.09,.56-.52,.66-1.46,.23-2.09-.43-.63-1.34-.88-2.03-.55Z"/><path class="cls-13" d="M3.01,37.02c-2,5.77-3.01,11.88-3.01,17.98,0,11.34,3.43,21.87,9.31,30.62,2.44-.67,4.84-1.9,7.06-3.11,3.31-1.81,6.66-3.65,9.46-6.18s5.05-5.87,5.55-9.61c.64-4.78-1.38-10.45,1.88-14,1.45-1.58,3.65-2.3,4.79-4.25,.42-.71,.59-1.57,.36-2.37-.7-2.36-3.78-2.17-5.8-3.3-1.73-.96-2.63-2.9-3.33-4.75s-1.36-3.82-2.86-5.12c-1.49-1.29-4.13-1.5-5.24,.14-.02-.1-.03-.2-.05-.31-.36-2.34-2.28-4.04-4.63-4.37-1.38-.19-2.74-.87-3.72-1.86-1.07-1.09-1.76-2.43-2.27-3.88-1.41,1.93-2.71,3.96-3.87,6.08-1.44,2.65-2.67,5.42-3.65,8.27Z"/><path class="cls-2" d="M50.91,67.93c-.15,0-.29-.07-.39-.19-.16-.21-.12-.52,.09-.68l1.6-1.21c.21-.16,.52-.12,.68,.09,.16,.21,.12,.52-.09,.68l-1.6,1.21c-.09,.07-.19,.1-.29,.1Z"/><path class="cls-2" d="M58.56,68.38c-.18,0-.35-.1-.44-.27l-.6-1.2c-.12-.24-.02-.53,.22-.65,.24-.12,.53-.02,.65,.22l.6,1.2c.12,.24,.02,.53-.22,.65-.07,.04-.14,.05-.22,.05Z"/><path class="cls-2" d="M57.56,62.98s-.06,0-.1,0c-.18-.04-.32-.17-.37-.34-.15-.54,.27-.85,.55-1.01l.34-.43c.11-.14,.3-.21,.48-.17,.18,.04,.32,.17,.37,.35,.15,.54-.27,.85-.55,1.01l-.34,.43c-.09,.12-.23,.18-.38,.18Z"/><path class="cls-2" d="M85.85,74.71c-.19,0-.37-.11-.45-.29-.11-.25,0-.53,.25-.64l1.56-.69c.25-.11,.53,0,.64,.25,.11,.25,0,.53-.25,.64l-1.56,.69c-.06,.03-.13,.04-.2,.04Z"/><path class="cls-2" d="M87.78,70c-.16,0-.31-.08-.4-.21l-.35-.52c-.19-.14-.44-.36-.53-.86-.04-.23,.08-.45,.3-.54,.21-.09,.46-.01,.59,.18l.35,.52c.17,.12,.39,.31,.49,.71,.04,.07,.06,.15,.06,.24,0,.27-.23,.47-.5,.49h-.01Z"/><path class="cls-2" d="M92.81,69.78c-.07,0-.15-.02-.22-.05-.24-.12-.33-.42-.21-.65,.31-.6,.85-1.06,1.5-1.25,.26-.08,.53,.07,.6,.33,.08,.26-.07,.53-.33,.6-.39,.11-.72,.4-.91,.76-.09,.17-.26,.27-.43,.27Z"/><path class="cls-2" d="M88.98,77.59s-.04,0-.05,0c-.27-.03-.46-.27-.43-.54l.2-1.8c.03-.27,.26-.46,.54-.43,.27,.03,.46,.27,.43,.54l-.2,1.8c-.03,.25-.24,.43-.48,.43Z"/><path class="cls-13" d="M45.91,85.18c-.77,.37-.73,1.65,0,2.11,.72,.46,1.76,.14,2.27-.54s.59-1.62,.41-2.45c-.7-.74-2.16-.39-2.44,.58l-.24,.3Z"/><path class="cls-2" d="M73.87,59.81c2.32-2.3,5.77-3.05,9.03-3.2,1.3-.06,2.67-.01,3.78,.66,1.11,.67,1.82,2.17,1.21,3.31-3.45,.84-6.52,3.1-8.37,6.13-1.84,3.03-2.43,6.8-1.59,10.25,.2,.84,.49,1.69,.34,2.54s-.92,1.67-1.77,1.5c-.68-.14-1.09-.82-1.41-1.44-1.63-3.15-3.29-6.36-3.86-9.85-.57-3.5,.11-7.39,2.63-9.89Z"/><path class="cls-9" d="M11.55,21.41C26.43,2.52,53.63-1.63,73.43,12.38c20.44,14.45,25.24,42.77,10.73,63.25-14.51,20.48-42.84,25.36-63.28,10.91C1.08,72.53-4.04,45.52,8.85,25.23-7.11,49.86-.97,82.87,23.16,99.93c24.77,17.51,59.1,11.6,76.69-13.22,17.59-24.82,11.76-59.13-13-76.65C62.71-7,29.51-1.81,11.55,21.41Z"/><path class="cls-6" d="M85.24,83.82c-17.69,18.77-45.17,22.92-67.13,11.97,22.11,20.06,56.46,18.73,77.03-3.1,20.73-22,19.63-56.49-2.46-77.02-.24-.23-.5-.44-.75-.66,13.46,21.21,11.41,49.6-6.69,68.81Z"/><path class="cls-2" d="M21.05,98.25c1.6-2.76,1.09-6.52-.79-9.16-2.04-2.87-5.35-4.58-8.73-5.56-1.35-.39-2.72-.68-4.09-.93,3.51,6.04,8.14,11.35,13.61,15.65Z"/><path class="cls-2" d="M12.01,73.8c5.31-1.61,9.34-5.97,12.37-10.62,1.88-2.88,3.53-6.08,3.69-9.52,.26-5.72-3.71-10.92-8.57-13.94-2.57-1.6-5.43-2.75-7.76-4.68-2.33-1.93-4.1-4.97-3.4-7.91-.47,.3-.9,.64-1.31,.99-.12,.21-.24,.42-.36,.63-1.44,2.65-2.67,5.42-3.65,8.27-2,5.77-3.01,11.88-3.01,17.98s1.1,12.53,3.11,18.24c2.73,1.2,6.02,1.43,8.9,.55Z"/><path class="cls-2" d="M100.85,31.19c-.52,3.98-2.67,7.73-5.85,10.18-1.93,1.49-4.23,2.53-5.84,4.36-1.61,1.82-2.26,4.89-.52,6.59,1.36,1.33,3.74,1.41,4.79,3,.69,1.04,.57,2.4,1.01,3.57,.64,1.7,2.45,2.77,4.25,2.95,1.81,.18,3.61-.4,5.25-1.2,2.29-1.11,4.33-2.68,6.03-4.57,0-.35,.03-.7,.03-1.06,0-10.42-2.9-20.16-7.94-28.47-.86,1.2-1.01,3.07-1.21,4.65Z"/><path class="cls-2" d="M42.57,105.7c-.76,.69-1.2,1.58-1.4,2.54,1.09,.28,2.2,.52,3.31,.74l-1.91-3.28Z"/><path class="cls-2" d="M94.21,93.56c-.5-.5-1.1-.89-1.81-1.08-1.96-.53-4.02,.46-5.61,1.72-1.59,1.26-2.97,2.83-4.77,3.76-3.87,1.99-8.52,.59-12.68-.68-4.16-1.27-9.06-2.25-12.55,.36-2.41,1.8-3.45,4.85-4.76,7.56-.8,1.65-1.89,3.33-3.31,4.44,2.06,.23,4.15,.37,6.27,.37,15.35,0,29.23-6.3,39.21-16.44Z"/><path class="cls-8" d="M6.66,28.75c-1.44,2.65-2.67,5.42-3.65,8.27-2,5.77-3.01,11.88-3.01,17.98,0,8.11,1.77,15.81,4.93,22.74,19.66,5.21,39.82-1.26,54.73-17.08,15.32-16.25,20.86-38.05,13.58-57.54C67.52,1.12,61.39,.02,55,.02,35,.02,16.2,11.24,6.66,28.75Z"/><g class="cls-12"><path class="cls-4" d="M17.38,18.1c13.87-13.32,36.04-15.91,47.66-3.98,11.62,11.93,1.06,22.7-12.21,39.18-10.89,13.53-29.62,24.85-41.24,12.92C-.03,54.29,3.51,31.43,17.38,18.1Z"/></g><path class="cls-7" d="M88.08,11.08c-2.27-1.7-4.69-3.24-7.27-4.61-5.3-2.81-10.86-4.67-16.48-5.65-.01,0-.02,0-.03,0-.53-.09-1.06-.17-1.6-.25-.49-.07-.98-.13-1.47-.19-.4-.05-.81-.09-1.21-.12-.62-.06-1.25-.11-1.88-.14-.14,0-.28-.02-.42-.03-.88-.04-1.76-.07-2.65-.07-.05,0-.1,0-.15,0-7.54,.01-14.91,1.62-21.67,4.56,14.28-5.58,30.81-5.18,45.4,2.55,26.43,14.01,36.41,46.7,22.27,73-14.13,26.3-47.02,36.27-73.45,22.25-1.52-.8-2.97-1.67-4.37-2.6,3.7,2.64,7.74,4.84,12.04,6.5,25.6,9.68,55.08-.85,68.34-25.53,3.55-6.61,5.6-13.62,6.28-20.63,.04-.47,.08-.95,.11-1.42,.02-.35,.05-.7,.07-1.05,.04-.88,.07-1.75,.07-2.64,0-17.95-8.61-33.89-21.92-43.93Z"/></g></g></svg>