<?xml version="1.0" encoding="UTF-8"?><svg xmlns="http://www.w3.org/2000/svg" xmlns:xlink="http://www.w3.org/1999/xlink" viewBox="0 0 110 110"><defs><style>.cls-1{fill:#fffae6;}.cls-2{fill:#296496;opacity:.69;}.cls-2,.cls-3{mix-blend-mode:multiply;}.cls-4{fill:#4c89d2;}.cls-5{isolation:isolate;}.cls-6{fill:url(#_Áåçûìÿííûé_ãðàäèåíò_886);opacity:.39;}.cls-3{fill:url(#radial-gradient);}.cls-7{fill:#2760fb;}.cls-8{fill:#325eb5;}.cls-9{fill:#055899;}.cls-10{mix-blend-mode:screen;opacity:.24;}.cls-10,.cls-11{fill:#fff;}.cls-12{fill:#2258b7;}.cls-13{fill:#0063b7;}.cls-11{opacity:.15;}.cls-14{filter:url(#luminosity-noclip-2);}.cls-15{mask:url(#mask-1);}.cls-16{mask:url(#mask);}.cls-17{fill:#0062bc;}</style><filter id="luminosity-noclip-2" x="4.61" y="6.47" width="65.43" height="64.78" color-interpolation-filters="sRGB" filterUnits="userSpaceOnUse"><feFlood flood-color="#fff" result="bg"/><feBlend in="SourceGraphic" in2="bg"/></filter><filter id="luminosity-noclip-3" x="8247.11" y="-8246.74" width="-32766" height="32766" color-interpolation-filters="sRGB" filterUnits="userSpaceOnUse"><feFlood flood-color="#fff" result="bg"/><feBlend in="SourceGraphic" in2="bg"/></filter><mask id="mask-1" x="8247.11" y="-8246.74" width="-32766" height="32766" maskUnits="userSpaceOnUse"/><radialGradient id="radial-gradient" cx="-111.45" cy="-156.53" fx="-111.45" fy="-156.53" r="59.65" gradientTransform="translate(168.92 -98.65) rotate(-88.17) scale(.89 .91) skewX(12.18)" gradientUnits="userSpaceOnUse"><stop offset=".23" stop-color="#f4f4f4"/><stop offset="1" stop-color="#000"/></radialGradient><mask id="mask" x="4.61" y="6.47" width="65.43" height="64.78" maskUnits="userSpaceOnUse"><g class="cls-14"><g class="cls-15"><path class="cls-3" d="M17.38,18.09c13.87-13.33,36.04-15.92,47.66-3.98,11.62,11.93,1.06,22.71-12.21,39.19-10.9,13.53-29.62,24.86-41.24,12.92C-.03,54.28,3.51,31.42,17.38,18.09Z"/></g></g></mask><radialGradient id="_Áåçûìÿííûé_ãðàäèåíò_886" cx="-111.45" cy="-156.53" fx="-111.45" fy="-156.53" r="59.65" gradientTransform="translate(168.92 -98.65) rotate(-88.17) scale(.89 .91) skewX(12.18)" gradientUnits="userSpaceOnUse"><stop offset=".23" stop-color="#fff"/><stop offset="1" stop-color="#f3f9f7"/></radialGradient></defs><g class="cls-5"><g id="Layer_1"><circle class="cls-7" cx="55" cy="55" r="55"/><path class="cls-17" d="M13.53,18.97C29.44,.96,56.84-1.62,75.81,13.49c19.59,15.6,22.78,44.15,7.14,63.77s-44.2,22.88-63.79,7.28C.19,69.43-3.41,42.16,10.61,22.63-6.71,46.32-2.45,79.63,20.67,98.05c23.73,18.91,58.34,14.96,77.3-8.82,18.96-23.77,15.08-58.37-8.65-77.28C66.2-6.47,32.76-3.19,13.53,18.97Z"/><path class="cls-2" d="M85.12,83.69c-17.7,18.93-45.17,23.03-67.24,12.03,22.22,20.16,56.51,18.83,77.19-3.11,20.83-22.11,19.56-57.21-2.63-77.85-.25-.23-.34,0-.59-.23,13.16,21.01,11.38,49.78-6.73,69.15Z"/><path class="cls-1" d="M102.39,48.49h-.2c-.44,0-.44,.69,0,.69h.2c.44,0,.44-.69,0-.69Z"/><path class="cls-12" d="M48.21,7.95c1.79-2.39,3.39-5.03,4.15-7.89C32.78,.99,15.89,12.15,6.91,28.32c15.92,.13,31.74-7.62,41.3-20.36Z"/><path class="cls-9" d="M53.12,102.91c-4.32,1.11-8.66,2.8-12.43,5.2,4.56,1.23,9.36,1.89,14.31,1.89,20.06,0,37.6-10.74,47.21-26.78-6.12,6.55-13.91,11.53-22.45,14.24-8.64,2.74-17.85,3.19-26.64,5.45Z"/><path class="cls-9" d="M86.31,78.18c-10.4,4.75-22.11,8.29-30.62,15.93-3.61,3.25-9.12,2.63-13.96,2.24-7.19-.57-14.45-.14-21.53,1.22,2.78,2.28,5.8,4.29,9,5.99,7.37-1.24,14.72-2.67,21.8-5.04,11.18-3.74,21.47-9.71,31.66-15.65,8.03-4.67,16.05-9.34,24.08-14.01,.58-.34,1.17-.68,1.75-1.04,.29-1.21,.54-2.43,.75-3.67-6.48,6.08-14.75,10.29-22.92,14.02Z"/><path class="cls-12" d="M23.45,41.17c4.32-2.62,8.09-6.09,12.59-8.39,3.96-2.02,8.35-3.07,12.31-5.09,8-4.07,14.95-11.81,16.34-20.63,.08-.53-.6-.83-.94-.41-5.92,7.29-14.29,11.56-20.46,18.81-1.63,1.92-4.42,2.32-6.94,2.33-2.52,.01-5.17-.2-7.43,.92-.84,.42-1.64,1.09-1.8,2.01-.16,.93,.37,1.83,.5,2.76,.32,2.25-1.83,4.25-4.07,4.63-2.25,.38-3.9-.81-5.99-1.71-1.58-.68-3.28,1.14-4.07,2.35-.45,.69-1.14,1.22-1.94,1.42-2.7,.68-3.27-2.81-5.38-3.6-1.01-.38-2.12-.04-3.13,.4-1.24,3.58-2.12,7.33-2.6,11.21,8.11-1.02,16.08-2.81,23.01-7.01Z"/><path class="cls-13" d="M15.48,84.33c4.47-1.69,8.54-4.38,13.13-5.7,1.98-.57,4.06-.89,5.89-1.85,2.91-.42,5.83-.85,8.71-1.44,15.05-3.05,28.73-10.22,41.73-18.58,.31,.91,1.02,1.69,1.95,1.9,1.73,.38,3.24-1.21,4.1-2.77,.86-1.55,1.63-3.38,3.27-4.04,2.05-.83,4.66,.54,6.5-.69,1.3-.86,1.58-2.6,2.21-4.02,1.04-2.39,3.18-4.08,5.08-5.87,.06-.06,.12-.12,.18-.17-1.05-4.05-2.57-7.9-4.46-11.53-6.19,10.25-18.49,15.72-26.69,24.72-2.84,3.12-5.23,6.72-8.58,9.28-4.82,3.69-11.06,4.85-17.08,5.63-9.45,1.22-19.01,1.78-28.29,3.96-1.7,.4-3.4,.86-5.08,1.39-4.84-.61-9.81-1.12-14.27,.5,1.48,3.77,3.34,7.34,5.58,10.65,2.08-.13,4.19-.64,6.12-1.38Z"/><path class="cls-8" d="M26.04,58.52c-7.33,4.89-15.84,7.98-24.59,9.01,.21,.92,.45,1.83,.71,2.73,7-.35,13.95-2.32,20.5-4.91,8.99-3.56,17.47-8.29,26.43-11.91,10.99-4.45,22.72-7.25,32.93-13.28,7.23-4.27,13.73-10.72,16.83-18.33-2.38-3.14-5.09-6.01-8.08-8.57-4.17,11.87-13.51,21.89-25.16,26.68-8.08,3.33-17.08,4.26-24.82,8.33-5.31,2.79-9.77,6.93-14.76,10.26Z"/><path class="cls-12" d="M9.22,59.91c3.37-.85,7.01-.12,10.32-1.19,2.93-.94,5.23-3.18,7.42-5.34l3.8-3.75c.93-.92-.05-2.46-1.28-2.01C19.8,51.22,10.05,54.66,.05,57.07c.09,2.41,.33,4.78,.72,7.1,2.8-1.49,5.38-3.49,8.44-4.26Z"/><path class="cls-9" d="M108.52,42.34c-1.42,.63-2.03,2.2-2.59,3.62-4.56,11.45-14.33,20.71-26.02,24.65-7.45,2.51-15.43,2.92-23.15,4.4-6.24,1.2-12.62,3.29-17.45,7.27-1.41,1.16-.51,3.48,1.31,3.4,7.88-.35,15.49-4.45,23.02-7.37,8.94-3.46,18.44-5.36,27.31-8.98,7.36-3,14.5-7.49,19.04-13.89,0-.01,0-.02,0-.03,.03-4.51-.49-8.88-1.48-13.08Z"/><path class="cls-12" d="M61.8,34.1c2.24-1.05,3.98-2.94,5.49-4.9,1.51-1.96,2.87-4.06,4.65-5.78,1.03-.99,2.2-1.86,2.99-3.05s1.11-2.85,.3-4.03c-.84-1.22-2.65-1.48-4.02-.9-1.37,.57-2.38,1.78-3.19,3.03-.81,1.25-1.48,2.6-2.47,3.71-1.87,2.09-4.63,3.09-6.98,4.62s-4.47,4.16-3.82,6.89c1.95,1.52,4.8,1.47,7.04,.42Z"/><path class="cls-4" d="M107.44,38.38c-.2,.42-.42,.86-.65,1.33-.24,.47-.52,.95-.8,1.46-.29,.5-.55,1.04-.87,1.58-.33,.53-.66,1.08-1.01,1.64-.34,.57-.7,1.14-1.1,1.71-.39,.57-.77,1.17-1.2,1.75-.88,1.14-1.72,2.37-2.72,3.51-.94,1.18-2,2.3-3.03,3.44-1.11,1.07-2.17,2.18-3.32,3.16-1.1,1.04-2.3,1.93-3.42,2.84-.57,.44-1.16,.84-1.72,1.25-.56,.41-1.12,.81-1.68,1.15-.56,.36-1.1,.71-1.62,1.05-.53,.34-1.06,.61-1.56,.91-.5,.29-.99,.57-1.44,.83-.47,.24-.92,.47-1.34,.68-.84,.44,.63-.25,0,0-1.24,.56-5.16,3.82-5.16,3.82l1.42-.62s.77-.23,2.12-.63c.68-.19,1.48-.49,2.39-.85,.46-.18,.95-.36,1.46-.56,.51-.22,1.03-.46,1.58-.72,.54-.26,1.13-.51,1.7-.82,.57-.31,1.16-.64,1.77-.97,.61-.33,1.22-.71,1.83-1.11,.61-.4,1.25-.79,1.88-1.22,1.22-.9,2.5-1.81,3.7-2.86,1.26-.99,2.39-2.15,3.57-3.27,1.09-1.2,2.25-2.34,3.22-3.61,1.03-1.22,1.92-2.52,2.8-3.76,.42-.64,.79-1.28,1.18-1.9,.39-.62,.76-1.23,1.06-1.86,.65-1.23,1.25-2.4,1.7-3.53,.07-.17,.14-.33,.21-.5-.28-1.13-.59-2.25-.94-3.35Z"/><path class="cls-4" d="M47.93,43.34c-1.15,.32-2.27,.66-3.37,1.03-1.1,.38-2.16,.68-3.2,1.11-.49,.2-.98,.4-1.46,.59-.49,.23-.97,.45-1.44,.67-.94,.45-1.78,.94-2.59,1.4-.78,.52-1.56,.95-2.21,1.49-1.35,.99-2.42,2.02-3.22,2.91-.39,.46-.74,.86-1.05,1.22-.27,.39-.49,.72-.67,.99-.35,.54-.54,.82-.54,.82l1.1,.75s.21-.24,.62-.68c.2-.22,.45-.49,.72-.82,.32-.29,.68-.63,1.09-1,.38-.39,.9-.73,1.43-1.14,.51-.42,1.13-.8,1.78-1.22,.63-.44,1.39-.78,2.13-1.22,.78-.37,1.6-.8,2.48-1.15,.43-.18,.88-.37,1.33-.56,.48-.17,.97-.35,1.48-.53,.95-.34,2.02-.63,3.07-.97,1.05-.34,2.16-.65,3.31-.96,1.14-.33,2.29-.66,3.5-1.07,2.42-.8,4.73-1.75,7.18-2.82,1.19-.58,2.43-1.06,3.61-1.69l1.8-.89,1.76-.97c1.21-.59,2.31-1.36,3.47-2.03,.57-.35,1.11-.75,1.66-1.12,.54-.39,1.11-.74,1.62-1.17,1.02-.84,2.09-1.62,3.02-2.53,.48-.44,.96-.88,1.43-1.31,.45-.46,.89-.92,1.33-1.37,.9-.89,1.7-1.85,2.47-2.79,.81-.91,1.45-1.93,2.12-2.88,1.27-1.95,2.29-3.9,3.15-5.72,.82-1.85,1.51-3.57,1.96-5.14,.09-.27,.17-.52,.24-.78-.36-.28-.71-.57-1.07-.84-.16,.35-.33,.72-.53,1.09-.66,1.44-1.52,3.01-2.49,4.69-.53,.82-1.01,1.7-1.6,2.56-.61,.84-1.18,1.76-1.85,2.64-1.31,1.77-2.7,3.65-4.3,5.46-.4,.45-.8,.91-1.21,1.37-.43,.44-.87,.88-1.3,1.32-.85,.91-1.82,1.72-2.75,2.58-.97,.82-1.96,1.64-2.97,2.44-1.06,.74-2.08,1.55-3.2,2.2l-1.67,1c-.57,.3-1.16,.57-1.74,.86-1.15,.59-2.38,1.01-3.58,1.44-2.42,.71-4.98,1.32-7.33,1.82-1.17,.27-2.36,.59-3.52,.91Z"/><path class="cls-4" d="M0,55.09c.23,0,.45,.02,.7,.02,.41,0,.84,0,1.3,0,.46-.03,.95-.07,1.45-.13,1.01-.11,2.11-.26,3.26-.46,1.16-.18,2.32-.53,3.54-.85,1.21-.35,2.47-.69,3.69-1.19,1.24-.46,2.48-.99,3.71-1.51,1.21-.6,2.41-1.2,3.58-1.82,1.18-.59,2.29-1.28,3.37-1.91,1.08-.64,2.14-1.21,3.11-1.83,.97-.6,1.89-1.17,2.74-1.7,.85-.51,1.61-1.02,2.27-1.48,.67-.46,1.25-.85,1.72-1.18,.95-.66,1.49-1.04,1.49-1.04,0,0-.61,.26-1.67,.71-.53,.23-1.17,.51-1.9,.83-.73,.33-1.56,.68-2.49,1.02-.92,.35-1.91,.73-2.97,1.13-1.04,.42-2.2,.71-3.37,1.1-1.17,.35-2.37,.74-3.63,1.04-1.25,.31-2.5,.65-3.74,1-1.26,.31-2.51,.62-3.73,.97-1.21,.37-2.42,.67-3.58,1-.58,.17-1.14,.34-1.7,.51-.55,.19-1.09,.35-1.62,.51-1.05,.32-2.03,.66-2.94,1-.91,.35-1.75,.67-2.49,.96-.06,1.07-.1,2.15-.1,3.24,0,.03,0,.06,0,.09Z"/><path class="cls-9" d="M31.54,88.28c-6.52-.72-13.39-1.17-19.48,1.07,2.88,3.6,6.21,6.84,9.89,9.61,4.07-2.18,8.01-4.91,12.48-5.91,3.27-.73,6.67-.48,10-.87,3.33-.38,6.83-1.58,8.71-4.35-6.91,2.25-14.39,1.23-21.61,.43Z"/><path class="cls-4" d="M80.26,75.65c-3.16,1.24-5.8,3.48-8.75,5.16-2.95,1.67-6.58,2.77-9.71,1.46,4.98-4.37,11.91-5.58,18.45-6.62Z"/><path class="cls-11" d="M0,55c0,8.18,1.8,15.94,5,22.92,19.52,4.95,39.47-1.55,54.26-17.25,15.35-16.29,20.9-38.15,13.59-57.68C67.25,1.06,61.25,0,55,0,24.62,0,0,24.62,0,55Z"/><g class="cls-16"><path class="cls-6" d="M17.38,18.09c13.87-13.33,36.04-15.92,47.66-3.98,11.62,11.93,1.06,22.71-12.21,39.19-10.9,13.53-29.62,24.86-41.24,12.92C-.03,54.28,3.51,31.42,17.38,18.09Z"/></g><path class="cls-10" d="M31.4,104.74c6.87,3.31,15.24,5.26,23.59,5.26,30.38,0,55-24.62,55-55S85.38,0,55,0C50.13,0,45.41,.64,40.91,1.83c12.47-2.96,26-1.59,38.16,4.86,26.56,14.08,36.53,47.01,22.27,73.55-13.52,25.16-44.18,35.48-69.93,24.5Z"/></g></g></svg>