<?xml version="1.0" encoding="UTF-8"?><svg xmlns="http://www.w3.org/2000/svg" xmlns:xlink="http://www.w3.org/1999/xlink" viewBox="0 0 110 110"><defs><style>.cls-1{fill:url(#_Áåçûìÿííûé_ãðàäèåíò_883);opacity:.49;}.cls-2{fill:#d5e3cc;}.cls-3{isolation:isolate;}.cls-4,.cls-5{fill:#987671;}.cls-6{fill:#b2c3a5;}.cls-7{fill:url(#radial-gradient);mix-blend-mode:multiply;}.cls-8{fill:#c8dcbe;}.cls-5{opacity:.33;}.cls-9{fill:#85625c;opacity:.74;}.cls-10{mix-blend-mode:screen;opacity:.24;}.cls-10,.cls-11{fill:#fff;}.cls-11{opacity:.15;}.cls-12{filter:url(#luminosity-noclip-2);}.cls-13{mask:url(#mask-1);}.cls-14{mask:url(#mask);}.cls-15{fill:#e2e9ff;}.cls-16{fill:#dee1d0;}</style><filter id="luminosity-noclip-2" x="4.61" y="7.11" width="65.43" height="64.78" color-interpolation-filters="sRGB" filterUnits="userSpaceOnUse"><feFlood flood-color="#fff" result="bg"/><feBlend in="SourceGraphic" in2="bg"/></filter><filter id="luminosity-noclip-3" x="8247.11" y="-8246.74" width="-32766" height="32766" color-interpolation-filters="sRGB" filterUnits="userSpaceOnUse"><feFlood flood-color="#fff" result="bg"/><feBlend in="SourceGraphic" in2="bg"/></filter><mask id="mask-1" x="8247.11" y="-8246.74" width="-32766" height="32766" maskUnits="userSpaceOnUse"/><radialGradient id="radial-gradient" cx="-112.18" cy="-156.51" fx="-112.18" fy="-156.51" r="59.65" gradientTransform="translate(168.92 -98.65) rotate(-88.17) scale(.89 .91) skewX(12.18)" gradientUnits="userSpaceOnUse"><stop offset="0" stop-color="#fff"/><stop offset=".77" stop-color="#000"/></radialGradient><mask id="mask" x="4.61" y="7.11" width="65.43" height="64.78" maskUnits="userSpaceOnUse"><g class="cls-12"><g class="cls-13"><path class="cls-7" d="M17.38,18.73c13.87-13.33,36.04-15.92,47.66-3.98,11.62,11.93,1.06,22.71-12.21,39.19-10.89,13.53-29.62,24.86-41.24,12.92C-.03,54.92,3.51,32.06,17.38,18.73Z"/></g></g></mask><radialGradient id="_Áåçûìÿííûé_ãðàäèåíò_883" cx="-112.18" cy="-156.51" fx="-112.18" fy="-156.51" r="59.65" gradientTransform="translate(168.92 -98.65) rotate(-88.17) scale(.89 .91) skewX(12.18)" gradientUnits="userSpaceOnUse"><stop offset="0" stop-color="#fff"/><stop offset=".77" stop-color="#f3f9f7"/></radialGradient></defs><g class="cls-3"><g id="Layer_1"><circle class="cls-6" cx="55" cy="55" r="55"/><path class="cls-8" d="M41.71,2.13C24.26,6.46,10.11,19.12,3.71,35.65c2.76,4.25,7.8,7.08,12.8,6.36,3.67-.53,6.91-2.78,10.55-3.47,3.63-.69,7.41,.22,11.05-.42,3.64-.64,7.38-3.96,6.3-7.49-.57-1.85-2.26-3.08-3.51-4.56-3.3-3.88-3.4-10.11-.23-14.1-2.16-2.81-1.3-7.08,.99-9.8,.02-.02,.03-.03,.05-.05Z"/><path class="cls-2" d="M54.73,70.32c-1.36-.55-1.74-2.31-1.56-3.77,.18-1.45,.73-2.9,.47-4.34-.25-1.44-1.85-2.79-3.13-2.07,1.28-3.93-1.04-8.67-4.93-10.06-3.89-1.39-8.69,.81-10.19,4.66-.52,1.33-.67,2.79-1.27,4.09-.59,1.3-1.83,2.49-3.26,2.35-1.72,3.22-3.76,7.68-4.45,11.26-.67,3.5-1.35,7.11-.62,10.6,.87,4.2,3.64,7.7,6.1,11.21,2.46,3.51,4.77,7.5,4.49,11.78-1.03-3.02,2.78-5.88,5.83-6.82s6.32-.33,9.51-.15c3.18,.18,6.74-.23,8.87-2.6,.89-.99,1.47-2.26,2.51-3.08,1.13-.88,2.62-1.1,3.97-1.57,4.62-1.61,7.48-6.12,9.98-10.32,2.49-4.17,5.06-9.06,3.44-13.64-1.71-4.84-8.51-6.97-12.68-3.97-2.66-.8-6.17-1.33-8.94-1.5-2.33-.14-5.21,.3-6,2.5-.55,1.54,2.57,3.97,1.83,5.43Z"/><path class="cls-4" d="M25.61,82.96c-1.19-3.99,.38-8.23,1.93-12.1,.36-.89,.71-1.78,1.07-2.67,1.26-3.15-2.18-6.13-5.11-4.41-2.37,1.39-4.92,2.34-7.69,2.57-4.86,.4-10.32-1.4-14.24,1.67,4.24,17.47,16.8,31.66,33.26,38.16,.76-4.83-.25-9.96-3.01-14-2.1-3.07-5.14-5.63-6.2-9.2Z"/><path class="cls-4" d="M55,110c20.91,0,39.1-11.67,48.4-28.86-1.23-.75-2.55-1.34-3.95-1.64-2.44-.53-5.15-.16-7.13,1.36-2.81,2.16-3.97,6.34-7.31,7.55-4.27,1.54-9.35-2.89-13.29-.63-2.11,1.21-3.09,4.02-5.39,4.79-1.61,.54-3.66-.02-4.88,1.17-.7,.68-.87,1.72-1.35,2.56-.88,1.54-2.73,2.29-4.49,2.5-1.76,.21-3.56,.01-5.33,.21-3.34,.38-6.39,2.19-8.84,4.5-1.24,1.17-2.33,2.47-3.36,3.82,5.33,1.72,11.01,2.66,16.91,2.66Z"/><path class="cls-8" d="M11.07,40.68c.55,.55,1.09,1.1,1.64,1.66,.27,.28,.55,.55,.82,.83,.21,.22,.57,.24,.85,.31,.87,.2,1.24-1.13,.37-1.34-.55-.13-.83-.55-1.22-.94-.49-.5-.98-.99-1.48-1.49-.63-.64-1.61,.34-.98,.98Z"/><path class="cls-8" d="M42.39,15.62c.4-.29,.82-.41,1.31-.3-.14-.34-.28-.68-.41-1.02-.09,.16-.19,.14-.35,.08,.17,.22,.34,.45,.51,.67,0-.29,0-.57,0-.86-.07,.16-.14,.33-.2,.49-.15-.01-.31-.03-.46-.05,.68,.56,1.67-.41,.98-.98-.39-.32-.84-.4-1.29-.14-.54,.31-.41,1.01-.4,1.54,0,.33,.22,.55,.51,.67,.72,.29,1.53-.06,1.91-.71,.22-.38,.03-.91-.41-1.02-.83-.2-1.68-.07-2.38,.44-.71,.52-.02,1.72,.7,1.2Z"/><path class="cls-8" d="M46.93,8.86v.22c0,.89,1.39,.89,1.39,0v-.22c0-.89-1.39-.89-1.39,0Z"/><path class="cls-8" d="M46.74,15.77c.89,0,.89-1.39,0-1.39s-.89,1.39,0,1.39Z"/><path class="cls-8" d="M48.9,104.44c-.08,.66,.53,1.31,1.19,1.26,.66-.05,1.18-.77,1.01-1.41-.21-.22-.6-.23-.82-.03l-1.38,.18Z"/><path class="cls-8" d="M50.03,105.85c-.33,0-.66-.15-.91-.41-.27-.29-.4-.65-.35-1.01l.28,.04c-.03,.27,.07,.56,.28,.78,.21,.22,.49,.35,.77,.33,.27-.02,.54-.18,.71-.43,.17-.24,.24-.52,.18-.78-.16-.14-.44-.14-.6,0l-.19-.21c.28-.25,.75-.24,1.01,.03l.03,.06c.09,.34,.01,.73-.21,1.05-.23,.32-.56,.52-.92,.54-.02,0-.05,0-.07,0Z"/><path class="cls-15" d="M42.31,65.99c1.07,.53,1.73,1.61,2.54,2.49,2.2,2.37,5.55,3.24,8.74,3.71,3.19,.48,6.52,.7,9.39,2.17,2.87,1.47,5.2,4.65,4.47,7.8-.47,2.04-2.12,3.63-3.96,4.63-1.84,1-3.9,1.5-5.89,2.16-7.42,2.44-14.08,7.11-18.91,13.24,1.77-4.11-1.29-8.52-3.12-12.6-2.73-6.09-2.71-13.36,.05-19.44,.61-1.34,1.37-2.66,2.54-3.55,1.17-.89,2.83-1.26,4.14-.61Z"/><path class="cls-8" d="M38.79,36.55c-3.06-.98-6.3,.43-9.42,1.23-3.11,.81-7.12,.66-8.68-2.15-1.48-2.66,.23-6.01,2.42-8.12,2.19-2.11,4.97-3.76,6.35-6.47,.95-1.85,1.13-3.99,1.39-6.05,.26-2.07,.66-4.21,1.95-5.85,1.29-1.64,3.72-2.56,5.52-1.52-1.31,1.02-.4,3.27,1.07,4.04,1.47,.77,3.24,.72,4.78,1.35,1.54,.63,2.84,2.56,1.86,3.9-1.86-1.12-4.64-.11-5.33,1.95-.69,2.06,.9,4.55,3.06,4.78,1.33,.14,2.63-.45,3.78-1.14,1.15-.68,2.27-1.48,3.57-1.82,1.3-.33,2.87-.07,3.64,1.02,.77,1.1,.14,3.01-1.2,3.07,1.19-.13,1.94,1.5,1.45,2.6-.49,1.1-1.67,1.69-2.78,2.16-1.11,.47-2.31,.96-2.95,1.97-1.26,1.98,.21,4.97-1.28,6.79-1.07,1.31-3.13,1.23-4.69,.57-1.55-.67-2.9-1.79-4.51-2.3Z"/><path class="cls-16" d="M70.33,2.09c1.9,4,3.62,8.14,3.75,12.54,.15,5.04-2.4,10.53-7.16,12.19-1.19,.41-2.51,.59-3.53,1.34s-1.56,2.38-.66,3.26l4.58,3.9c-2.08,.72-4.12,2-5.05,3.99-.93,2-.36,4.78,1.63,5.74,1.42,.68,3.21,.27,4.38-.79,1.17-1.06,1.75-2.65,1.82-4.22,.09-1.94-.25-4.43,1.48-5.32,1.27-.65,2.89,.22,3.55,1.48,.66,1.26,.62,2.76,.53,4.18-.09,1.42-.2,2.9,.36,4.21,.59,1.38,1.91,2.58,1.75,4.07-.14,1.34-1.43,2.26-1.98,3.49-.61,1.36-.24,3.01,.58,4.26s2.02,2.19,3.2,3.11c1.7,1.32,4.02,2.68,5.83,1.52,2.06-1.33,1.35-4.48,2.11-6.81,.6-1.84,2.33-3.26,4.25-3.5,1.92-.24,3.94,.73,4.97,2.37,1.51-1.4,3.97-.98,5.75,.03,1.79,1.01,3.3,2.53,5.22,3.25,.69,.26,1.41,.4,2.13,.44,.02-.65,.05-1.29,.05-1.94,0-25.01-16.7-46.11-39.55-52.78Z"/><path class="cls-8" d="M84.16,8.87c2.35,2.71,3.48,6.45,2.94,10-.59,3.86-2.95,7.9-1.17,11.37,1.58,3.09,5.56,3.87,8.37,5.91,2.45,1.78,3.98,4.53,6.07,6.72,2.09,2.19,5.31,3.89,8.08,2.68,.21-.09,.39-.21,.58-.33-2.89-15.31-12.12-28.37-24.87-36.35Z"/><path class="cls-4" d="M1.01,46.73c.12,3.88,.95,7.73,2.44,11.31,.56,1.36,1.34,2.79,2.71,3.33,1.62,.63,3.84-.08,4.9,1.3,.51,.67,.51,1.59,.87,2.34,.36,.76,1.53,1.26,1.99,.56-.07-1.5,1.19-2.95,2.69-3.08-.54,.58,.51,1.44,1.25,1.17,.74-.27,1.18-1.03,1.84-1.46,1.7-1.12,4,.33,5,2.1,1.31,2.32,1.44,5.27,.33,7.7-1.71,3.74-6.15,5.8-10.24,5.32-4.08-.48-7.7-3.18-9.95-6.62s-3.28-7.56-3.67-11.65c-.39-4.09-.18-8.22-.16-12.33Z"/><path class="cls-4" d="M86.72,78.73c.36-1.73,2.09-1.64,3.35-1.17,1,.37,2.05,.91,3.08,.64,1.61-.42,2.1-2.44,3.25-3.64,1.22-1.28,3.13-1.57,4.8-2.15,1.68-.58,5.04-2.72,4.9-4.49-2.58,12.05-14.11,23.02-26.1,25.86-.65-1.56-1.31-3.18-1.28-4.87,0-.07,0-.13,0-.2,.11-1.97,2.25-2.99,3.99-2.07,.93,.49,2.12,.56,3.07,.07,1.93-1.01,2.58-3.81,1.43-5.68-.42-.69-.67-1.49-.51-2.28Z"/><path class="cls-16" d="M21.31,49.66c2.12,.33,4.25-1.06,5.24-2.96,.71-1.35,.88-3.14-.1-4.32-1.05-1.27-3.09-1.33-4.5-.48-1.41,.85-2.26,2.39-2.77,3.96-.22,.67-.38,1.4-.18,2.07,.29,.97,1.3,1.58,2.3,1.73Z"/><path class="cls-16" d="M63.68,12.5c-2.9-.43-5.97,1.49-6.85,4.29-.52,1.66-.05,3.86,1.59,4.43,1.41,.49,2.9-.43,4-1.43,.98-.89,1.86-1.88,2.62-2.96,.65-.9,1.23-2.09,.73-3.08-.38-.76-1.26-1.12-2.1-1.25Z"/><path class="cls-16" d="M39.68,42.79c-.33-1.24-2-1.39-3.27-1.28-1.93,.16-3.87,.32-5.8,.48-.5,1.3,.52,2.78,1.82,3.29s2.74,.31,4.12,.11c.76-.11,1.55-.23,2.2-.65,.65-.41,1.13-1.21,.93-1.95Z"/><path class="cls-16" d="M83.42,70.52c-.15,.71-.51,1.45-.21,2.11,.39,.84,1.68,.87,2.39,.27,.71-.6,.99-1.55,1.22-2.45,.26-.97,.52-2,.24-2.97-.27-.97-1.29-1.8-2.25-1.49-.8,.26-1.2,1.17-1.29,2.01-.08,.84,.06,1.7-.11,2.52Z"/><path class="cls-16" d="M90.91,54.51c-.14,1.31,1.42,2.46,2.63,1.94,.52-.69,.36-1.79-.33-2.3-.69-.51-1.79-.34-2.29,.35Z"/><path class="cls-16" d="M20.35,59.29c.75,.37,1.71,.3,2.35-.24,.64-.54,.86-1.54,.44-2.26-.53-.91-1.95-1.06-2.72-.34-.77,.71-.77,2.06-.07,2.84Z"/><path class="cls-5" d="M13.53,18.97C29.44,.96,56.84-1.62,75.81,13.49c19.59,15.6,22.78,44.15,7.14,63.77-15.64,19.62-44.2,22.88-63.79,7.28C.19,69.43-3.41,42.16,10.61,22.63-6.71,46.32-2.45,79.63,20.67,98.05c23.73,18.91,58.34,14.96,77.3-8.82,18.96-23.77,15.08-58.37-8.65-77.28C66.2-6.47,32.76-3.19,13.53,18.97Z"/><path class="cls-9" d="M18.74,96.33c9.68,8.5,22.37,13.67,36.26,13.67,30.38,0,55-24.62,55-55,0-15.95-6.8-30.31-17.65-40.36,13.08,21.13,11.24,49.93-6.92,69.35-17.52,18.74-44.68,22.75-66.7,12.34Z"/><path class="cls-11" d="M20.11,12.49C7.85,22.65,.04,37.98,0,55.13c.02,8.41,1.93,16.38,5.33,23.51,19.77,5.01,39.97-1.58,54.96-17.48,15.35-16.29,21.01-38.06,14.04-57.65C68.31,1.24,61.8,0,55,0,41.75,0,29.6,4.69,20.11,12.49Z"/><g class="cls-14"><path class="cls-1" d="M17.38,18.73c13.87-13.33,36.04-15.92,47.66-3.98,11.62,11.93,1.06,22.71-12.21,39.19-10.89,13.53-29.62,24.86-41.24,12.92C-.03,54.92,3.51,32.06,17.38,18.73Z"/></g><path class="cls-10" d="M40.18,107.96c4.72,1.32,9.68,2.04,14.82,2.04,30.38,0,55-24.62,55-55S85.38,0,55,0C51.04,0,47.18,.43,43.46,1.22c11.65-2.07,24.05-.41,35.29,5.55,26.68,14.15,36.74,47.16,22.46,73.74-12,22.34-37.39,33.04-61.02,27.46Z"/></g></g></svg>