<?xml version="1.0" encoding="UTF-8"?><svg xmlns="http://www.w3.org/2000/svg" xmlns:xlink="http://www.w3.org/1999/xlink" viewBox="0 0 135.17 127.56"><defs><style>.cls-1{fill:#d2aa57;}.cls-2{fill:#bd7a59;opacity:.72;}.cls-3{fill:#a3966d;}.cls-4{fill:#e1c364;}.cls-5{isolation:isolate;}.cls-6{fill:url(#_Áåçûìÿííûé_ãðàäèåíò_886);opacity:.39;}.cls-7{fill:#995f41;}.cls-8{fill:url(#radial-gradient);mix-blend-mode:multiply;}.cls-9{fill:#795887;}.cls-10{fill:#cca750;}.cls-11{fill:#9484a8;}.cls-12{fill:#e6ba5b;}.cls-13{fill:url(#_Áåçûìÿííûé_ãðàäèåíò_907);}.cls-14{fill:url(#_Áåçûìÿííûé_ãðàäèåíò_907-2);}.cls-15{mix-blend-mode:screen;opacity:.31;}.cls-15,.cls-16{fill:#fff;}.cls-16{opacity:.15;}.cls-17{fill:#604c6a;}.cls-18{fill:#9d9bae;}.cls-19{filter:url(#luminosity-noclip-2);}.cls-20{mask:url(#mask-1);}.cls-21{mask:url(#mask);}</style><filter id="luminosity-noclip-2" x="21.89" y="19.14" width="53.08" height="52.55" color-interpolation-filters="sRGB" filterUnits="userSpaceOnUse"><feFlood flood-color="#fff" result="bg"/><feBlend in="SourceGraphic" in2="bg"/></filter><filter id="luminosity-noclip-3" x="8259.75" y="-8255.45" width="-32766" height="32766" color-interpolation-filters="sRGB" filterUnits="userSpaceOnUse"><feFlood flood-color="#fff" result="bg"/><feBlend in="SourceGraphic" in2="bg"/></filter><mask id="mask-1" x="8259.75" y="-8255.45" width="-32766" height="32766" maskUnits="userSpaceOnUse"/><radialGradient id="radial-gradient" cx="-98.32" cy="-148.8" fx="-98.32" fy="-148.8" r="48.75" gradientTransform="translate(174.28 -75.85) rotate(-88.17) scale(.88 .9) skewX(12.18)" gradientUnits="userSpaceOnUse"><stop offset=".23" stop-color="#f4f4f4"/><stop offset="1" stop-color="#000"/></radialGradient><mask id="mask" x="21.89" y="19.14" width="53.08" height="52.55" maskUnits="userSpaceOnUse"><g class="cls-19"><g class="cls-20"><path class="cls-8" d="M32.25,28.57c11.25-10.81,29.24-12.91,38.66-3.23,9.43,9.68,.86,18.42-9.9,31.79-8.84,10.98-24.03,20.17-33.46,10.48-9.43-9.68-6.55-28.23,4.7-39.04Z"/></g></g></mask><radialGradient id="_Áåçûìÿííûé_ãðàäèåíò_886" cx="-98.32" cy="-148.8" fx="-98.32" fy="-148.8" r="48.75" gradientTransform="translate(174.28 -75.85) rotate(-88.17) scale(.88 .9) skewX(12.18)" gradientUnits="userSpaceOnUse"><stop offset=".23" stop-color="#fff"/><stop offset="1" stop-color="#f3f9f7"/></radialGradient><linearGradient id="_Áåçûìÿííûé_ãðàäèåíò_907" x1="54.99" y1="50.95" x2="81.65" y2="78.11" gradientUnits="userSpaceOnUse"><stop offset="0" stop-color="#c39783"/><stop offset="1" stop-color="#fff1e6"/></linearGradient><linearGradient id="_Áåçûìÿííûé_ãðàäèåíò_907-2" x1="54.99" y1="50.95" x2="81.65" y2="78.11" xlink:href="#_Áåçûìÿííûé_ãðàäèåíò_907"/></defs><g class="cls-5"><g id="Layer_1"><circle class="cls-10" cx="62.77" cy="58.51" r="44.62" transform="translate(-20.99 77.16) rotate(-55.54)"/><path class="cls-2" d="M29.12,29.28c12.91-14.61,35.14-16.71,50.53-4.45,15.89,12.66,18.48,35.82,5.79,51.74-12.69,15.92-35.86,18.56-51.75,5.9-15.39-12.26-18.31-34.38-6.94-50.23-14.05,19.22-10.6,46.24,8.16,61.18,19.26,15.34,47.33,12.14,62.71-7.15,15.38-19.29,12.24-47.36-7.02-62.7-18.76-14.94-45.89-12.28-61.49,5.7Z"/><path class="cls-7" d="M87.21,81.79c-14.36,15.36-36.66,18.55-54.56,9.62,18.03,16.35,45.86,15.42,62.63-2.38,16.9-17.94,15.87-46.41-2.14-63.16-.2-.19-.27,0-.48-.18,10.68,17.05,9.24,40.39-5.46,56.1Z"/><path class="cls-3" d="M75.52,15.75c-3.07-.92-6.27-1.52-9.55-1.75-.54,1.68-.98,2.99-1.12,3.33-1.88,4.39-4.17,8.59-6.82,12.56-5.35,8-12.11,14.72-19.91,20.34-6.25,4.5-12.92,8.34-19.83,11.7,.01,.16,.02,.31,.03,.47,.22,2.54,.66,5,1.29,7.39,23.21-9.77,47.12-29.29,55.91-54.04Z"/><path class="cls-18" d="M61.94,13.91c-.57,.03-1.14,.06-1.71,.11-.57,.05-1.14,.12-1.71,.19-9.81,16.52-23.62,31.11-39.99,40.96-.28,2.75-.31,5.57-.07,8.42,.03,.27,.06,.55,.09,.83,4.7-1.99,9.24-4.63,13.26-7.57,9.04-6.62,17.66-13.94,24.69-22.66,4.85-6.02,8.93-12.76,11.65-19.98-2.03-.24-4.11-.34-6.2-.3Z"/><path class="cls-12" d="M25.01,82.27c27.16-12.03,49.47-34.08,62.68-60.77-1.63-1.1-3.32-2.09-5.09-2.97-11.94,26.21-33.55,47.92-59.71,59.98,.65,1.29,1.36,2.55,2.12,3.76Z"/><path class="cls-4" d="M96.65,39.47c1.15-1.93,2.26-3.96,3-6.07-2.25-3.3-4.92-6.27-7.94-8.84-5.16,11.7-12.46,22.44-21.01,31.97-9.88,11.02-21.42,20.47-33.62,28.85-2.09,1.43-4.26,2.85-6.54,3.97,1.92,2,4.02,3.82,6.27,5.43,24.09-13.32,45.73-31.72,59.85-55.31Z"/><path class="cls-1" d="M82.59,18.53c-.96,2.1-2,4.16-3.08,6.2,.04,.03,.09,.07,.13,.1,1.51,1.2,2.9,2.51,4.17,3.88,1.36-2.36,2.65-4.77,3.86-7.22-1.63-1.1-3.32-2.09-5.09-2.97Z"/><path class="cls-1" d="M99.65,33.4c-2.25-3.3-4.92-6.27-7.94-8.84-1.31,2.97-2.75,5.87-4.32,8.71,2.54,3.82,4.3,8.05,5.26,12.43,1.39-2.04,2.74-4.1,4.01-6.23,1.15-1.93,2.26-3.96,3-6.07Z"/><path class="cls-11" d="M58.87,14.06c-.56,.05-1.11,.12-1.66,.19-9.52,16.04-22.94,30.2-38.83,39.77-.27,2.74-.31,5.54-.06,8.39,.02,.2,.05,.4,.07,.6,4.57-1.94,8.98-4.5,12.88-7.36,8.78-6.43,17.15-13.53,23.97-22,4.75-5.9,8.74-12.5,11.39-19.58-2.54-.22-5.13-.23-7.76,0Z"/><path class="cls-9" d="M58.87,14.06c-5.34,.47-10.37,1.86-14.96,4-2.54,5.7-6.58,10.75-11.22,14.98-3.54,3.22-7.31,6-11.22,8.61-1.96,4.8-3.11,9.98-3.28,15.38,2.93-1.47,5.81-3.03,8.52-4.9,4.11-2.84,8.01-5.98,11.67-9.38,7.32-6.79,13.68-14.63,18.81-23.2,1.1-1.84,2.11-3.68,2.98-5.57-.43,.03-.86,.04-1.29,.08Z"/><path class="cls-17" d="M21,42.8c5.23-3.27,10.17-6.99,14.48-11.39,4.03-4.12,7.51-8.85,10.01-14.03-11.35,4.77-20.2,14.05-24.49,25.43Z"/><path class="cls-16" d="M58.87,14.06c-24.55,2.15-42.7,23.8-40.55,48.35,.46,5.2,1.8,10.11,3.84,14.6,15.87,4.05,32.1-1.21,44.13-13.98,12.42-13.19,16.94-30.86,11.08-46.68-5.77-2-12.03-2.86-18.51-2.29Z"/><g class="cls-21"><path class="cls-6" d="M32.25,28.57c11.25-10.81,29.24-12.91,38.66-3.23,9.43,9.68,.86,18.42-9.9,31.79-8.84,10.98-24.03,20.17-33.46,10.48-9.43-9.68-6.55-28.23,4.7-39.04Z"/></g><path class="cls-15" d="M107.22,54.61c-2.15-24.55-23.8-42.7-48.35-40.55-2.45,.21-4.83,.63-7.14,1.22,9.93-2.17,20.64-.99,30.3,4.13,21.6,11.45,29.74,38.18,18.18,59.69-10.41,19.37-33.23,27.9-53.44,21.06,6.14,2.36,12.9,3.4,19.89,2.79,24.55-2.15,42.7-23.8,40.55-48.35Z"/><path class="cls-13" d="M133.88,1.55c-4.95-5.27-23.17,3.22-45.93,20.12,1.31,.89,2.56,1.86,3.76,2.89,13.14-8.7,23.88-13.12,27.51-9.25,3.94,4.19-2.38,16.12-13.49,30.11-.07,.09-.15,.18-.22,.28-7.52,9.44-17.19,19.79-27.37,29.34-10.12,9.5-20.99,18.44-30.84,25.33-.15,.11-.31,.22-.46,.33-14.67,10.2-26.97,15.75-30.9,11.55-3.64-3.88,1.5-14.39,11.09-27.02-.94-1.26-1.83-2.57-2.64-3.93C6.01,103-3.67,120.72,1.29,126c5.28,5.62,25.66-4.41,50.54-23.62,.2-.15,.4-.32,.6-.47,9-6.98,18.57-15.15,28.22-24.21,9.7-9.11,18.5-18.19,26.07-26.78,.12-.14,.25-.28,.37-.42C127.85,26.9,139.16,7.18,133.88,1.55Z"/><path class="cls-14" d="M17.37,110.91c2.74,2.91,13.09-1.09,27.56-11.04,.13-.09,.27-.19,.4-.28,9.18-6.35,19.98-15.05,31.54-25.9,11.63-10.92,21.05-21.21,27.98-30,.06-.07,.12-.15,.18-.22,10.84-13.81,15.5-23.89,12.76-26.8-2.55-2.72-11.74,.59-24.71,9.12,.68,.63,1.33,1.28,1.97,1.95,6.16-3.31,10.6-4.42,12.26-2.66,1.79,1.91,0,6.89-4.42,13.62-.03,.04-.06,.08-.08,.12-5.76,8.73-15.92,20.37-28.47,32.16-12.47,11.7-24.66,21.05-33.71,26.27-.1,.06-.2,.12-.3,.18-7.01,4-12.09,5.47-13.89,3.56-1.67-1.78-.24-6.2,3.53-12.23-.62-.67-1.23-1.36-1.81-2.07-9.42,12.48-13.35,21.5-10.78,24.24Z"/></g></g></svg>