<?xml version="1.0" encoding="UTF-8"?><svg id="Layer_1" xmlns="http://www.w3.org/2000/svg" xmlns:xlink="http://www.w3.org/1999/xlink" viewBox="0 0 113.87 126.24"><defs><style>.cls-1{fill:#a8daff;}.cls-2{fill:#4bbbff;}.cls-3{fill:url(#_Áåçûìÿííûé_ãðàäèåíò_886);opacity:.39;}.cls-4{opacity:.24;}.cls-4,.cls-5{fill:#fff;}.cls-6{fill:url(#radial-gradient);mix-blend-mode:multiply;}.cls-7{fill:#75d2ff;}.cls-8{fill:url(#_Áåçûìÿííûé_ãðàäèåíò_885);}.cls-9{fill:#4faecf;}.cls-5{opacity:.15;}.cls-10{fill:#1a5dad;}.cls-11{filter:url(#luminosity-noclip-2);}.cls-12{mask:url(#mask-1);}.cls-13{mask:url(#mask);}.cls-14{fill:#3c9fe1;}</style><filter id="luminosity-noclip-2" x="9.59" y="17.6" width="59.65" height="59.07" color-interpolation-filters="sRGB" filterUnits="userSpaceOnUse"><feFlood flood-color="#fff" result="bg"/><feBlend in="SourceGraphic" in2="bg"/></filter><filter id="luminosity-noclip-3" x="8249.34" y="-8254.03" width="-32766" height="32766" color-interpolation-filters="sRGB" filterUnits="userSpaceOnUse"><feFlood flood-color="#fff" result="bg"/><feBlend in="SourceGraphic" in2="bg"/></filter><mask id="mask-1" x="8249.34" y="-8254.03" width="-32766" height="32766" maskUnits="userSpaceOnUse"/><radialGradient id="radial-gradient" cx="-111.92" cy="-147.93" fx="-111.92" fy="-147.93" r="54.39" gradientTransform="translate(164.45 -88.21) rotate(-88.17) scale(.89 .91) skewX(12.18)" gradientUnits="userSpaceOnUse"><stop offset=".23" stop-color="#f4f4f4"/><stop offset="1" stop-color="#000"/></radialGradient><mask id="mask" x="9.59" y="17.6" width="59.65" height="59.07" maskUnits="userSpaceOnUse"><g class="cls-11"><g class="cls-12"><path class="cls-6" d="M21.23,28.2c12.65-12.15,32.86-14.51,43.45-3.63,10.6,10.88,.96,20.7-11.13,35.73-9.93,12.34-27.01,22.66-37.61,11.78-10.6-10.88-7.36-31.73,5.28-43.88Z"/></g></g></mask><radialGradient id="_Áåçûìÿííûé_ãðàäèåíò_886" cx="-111.92" cy="-147.93" fx="-111.92" fy="-147.93" r="54.39" gradientTransform="translate(164.45 -88.21) rotate(-88.17) scale(.89 .91) skewX(12.18)" gradientUnits="userSpaceOnUse"><stop offset=".23" stop-color="#fff"/><stop offset="1" stop-color="#f3f9f7"/></radialGradient><linearGradient id="_Áåçûìÿííûé_ãðàäèåíò_885" x1="46.57" y1="55.76" x2="73.11" y2="74.63" gradientUnits="userSpaceOnUse"><stop offset="0" stop-color="#6a7cc0"/><stop offset="1" stop-color="#fff"/></linearGradient></defs><circle class="cls-2" cx="55.53" cy="61.85" r="50.15" transform="translate(-27.47 57.38) rotate(-45)"/><path class="cls-9" d="M17.72,29c14.51-16.42,39.49-18.78,56.79-5,17.86,14.23,20.77,40.26,6.51,58.15-14.26,17.89-40.3,20.86-58.16,6.63C5.55,75,2.28,50.14,15.06,32.34-.74,53.94,3.15,84.31,24.23,101.1c21.64,17.24,53.2,13.64,70.48-8.04,17.28-21.68,13.75-53.23-7.89-70.46C65.74,5.8,35.26,8.79,17.72,29Z"/><path class="cls-10" d="M21.84,98.98c.09,.08,.17,.17,.26,.25,20.64,18.47,52.34,16.7,70.81-3.94,13.78-15.4,16.29-36.96,8.11-54.58-.14-.29-.28-.58-.42-.87-.15-.31-.31-.62-.47-.93-2.63-5.04-6.12-9.71-10.46-13.74-.22-.21-.31,0-.54-.21,12,19.16,10.38,45.39-6.13,63.05-16.07,17.19-41.09,20.85-61.16,10.97Z"/><path class="cls-7" d="M18.16,28.41c-4.63,5.17-7.98,11.03-10.09,17.21,9.53-2.29,18.56-6.68,26.19-12.83,7.06-5.69,12.9-12.87,17.1-20.9-12.33,1.03-24.3,6.58-33.2,16.52Z"/><path class="cls-7" d="M64.45,12.5c-1.65,4.15-4.41,7.91-7.55,11.13-4.39,4.5-9.56,8.16-14.38,12.2-10.08,8.45-19,18.81-31.09,23.99-1.89,.81-3.97,1.46-6.03,1.72-.02,2.91,.22,5.81,.7,8.68,6.04-1.41,11.65-5.05,16.29-9.3,6.35-5.82,11.48-12.87,17.89-18.62,5.78-5.18,12.51-9.21,18.44-14.21,4.67-3.93,8.94-8.69,11.29-14.25-1.83-.55-3.69-1-5.56-1.34Z"/><path class="cls-7" d="M91.91,27.36c-.94-.99-1.91-1.95-2.95-2.88-.2-.17-.4-.34-.6-.51-9.19,11.25-19.5,21.57-30.74,30.76-.86,.71-1.77,1.43-2.86,1.68-1.09,.26-2.4-.08-2.92-1.07-.94-1.8,1.26-3.86,.89-5.85-.33-1.79-2.68-2.55-4.39-1.93-1.71,.62-2.91,2.14-4.06,3.55-9.59,11.8-22.16,21.15-36.18,27.04,1.29,3.76,3.03,7.39,5.23,10.8,8.75-6,16.96-12.81,24.45-20.33-.25,1.49-.51,3.01-.23,4.49,.27,1.48,1.19,2.94,2.62,3.43,2.03,.7,4.13-.73,5.8-2.08,17.19-13.81,34.88-28.25,45.94-47.11Z"/><path class="cls-7" d="M84.29,20.78c-1.5-1.05-3.04-2.01-4.61-2.88-7.55,8.86-15.88,17.05-24.9,24.4-.56,.46-1.15,.94-1.44,1.61s-.19,1.57,.43,1.95c.68,.42,1.56,.03,2.25-.36,10.95-6.24,20.61-14.71,28.27-24.71Z"/><path class="cls-14" d="M67.78,101.99c-1.08,1-2.89,1.97-3.84,.85-.69-.82-.24-2.06,.27-3,1.91-3.57,4.18-6.94,6.78-10.05,1.21-1.45,2.53-2.9,3.13-4.7s.27-4.07-1.31-5.12c-2.16-1.43-4.99,.15-7.08,1.68-7.33,5.39-14.66,10.78-21.99,16.17-3.93,2.89-7.99,5.83-12.35,7.97,5.69,3.13,11.83,5.07,18.08,5.83,3.48-.56,6.9-1.56,10.15-2.89,7.59-3.12,14.35-7.96,20.64-13.22,9.13-7.62,17.43-16.22,24.76-25.59,.58-3.58,.78-7.21,.59-10.82-11.09,15.54-23.79,29.94-37.83,42.88Z"/><path class="cls-7" d="M60.82,11.99c-.39-.04-.78-.08-1.17-.12-4.09,7.51-11.27,13.04-17.5,19.06-7,6.77-13.35,14.74-22.32,18.52-4.27,1.8-8.85,2.52-13.5,2.65-.17,.86-.32,1.72-.44,2.59,6.23-.69,12.3-2.83,17.54-6.26,3.83-2.51,7.19-5.66,10.53-8.79,4.72-4.42,9.43-8.84,14.15-13.27,3.51-3.29,7.04-6.6,9.99-10.4,.98-1.27,1.89-2.6,2.72-3.98Z"/><path class="cls-7" d="M74.71,18.55c.49-.79,.86-1.67,1.07-2.58-.34-.15-.68-.3-1.03-.44-1.91,4.57-5.43,8.44-9.3,11.63-4.62,3.82-9.82,6.89-14.43,10.73-1.47,1.22-2.87,2.52-4.27,3.82-.36,.33-.74,.7-.84,1.18-.1,.48,.24,1.08,.73,1.04,.26-.02,.47-.2,.66-.37,7.76-6.86,15.52-13.72,23.28-20.58,1.52-1.34,3.06-2.71,4.13-4.43Z"/><path class="cls-14" d="M105.14,54.54c-3.33,6.37-8.78,11.63-13.9,16.81-6.75,6.83-13.2,13.95-19.32,21.34-1.43,1.73-2.91,3.66-3.44,5.78-.17,.69,.7,1.16,1.18,.64,11.13-12.13,22.24-24.31,32.36-37.3,1.23-1.57,2.46-3.25,3.41-5.03-.08-.75-.17-1.5-.28-2.24Z"/><path class="cls-7" d="M58.01,91.25c-7.38,6.18-15.45,11.54-24,15.98,5.75,2.6,11.9,4.34,18.06,4.65-.98-2.29,.58-5.17,2.12-7.18l7.23-9.47c.6-.79,1.21-1.6,1.44-2.56,.23-.96-.04-2.12-.89-2.63-1.27-.76-2.83,.26-3.96,1.21Z"/><path class="cls-7" d="M34.14,81.95c-1.75-.76-3.84-.32-5.5,.63s-3,2.35-4.41,3.65c-2.57,2.38-5.43,4.44-8.48,6.15,1.27,1.65,2.65,3.24,4.15,4.75,5.34-4.61,10.85-9.14,14.23-15.19Z"/><path class="cls-14" d="M84.62,68.11c-2.32,2.42-4.92,5.4-4.17,8.67,7.78-7.94,15.55-15.89,23.33-23.83,.31-.32,.62-.64,.93-.97-.49-2.47-1.18-4.92-2.05-7.3-5.16,8.42-11.21,16.3-18.04,23.44Z"/><path class="cls-7" d="M75.57,61.15c-5.95,4.44-13,7.1-19.48,10.74-9.76,5.48-18.22,13.25-24.52,22.49-.6,.89,.42,1.97,1.35,1.44,4.9-2.8,8.9-7.19,13.23-10.92,8.77-7.55,19.35-12.63,28.9-19.16,9.55-6.53,18.49-15.2,21.29-26.43,.45-1.79,.71-3.63,.78-5.48-.77-1.14-1.6-2.26-2.48-3.35-3.45,11.88-9.25,23.33-19.08,30.67Z"/><path class="cls-7" d="M67.12,77.07c-8.34,4.29-16.19,9.55-23.34,15.62-.77,.65-1.54,1.32-2.31,1.99-4.11,3.56-8.32,7.2-13.03,9.37,.31,.2,.63,.39,.94,.58,4.6-2.24,8.69-5.78,12.7-9.25,.77-.67,1.54-1.33,2.31-1.99,7.09-6.03,14.89-11.24,23.16-15.5,1.13-.58,4.94-2.31,6.51-.14l.76-.55c-1.35-1.88-4.23-1.93-7.7-.15Z"/><path class="cls-1" d="M71.12,81.25c-1.09-.76-2.58-.1-3.71,.6-3.97,2.42-7.75,5.16-11.29,8.18,2.31-1.37,4.9-2.78,7.53-2.25,1.7,.35,3.21,1.56,3.91,3.15,1.94-1.56,3.41-3.7,4.16-6.07,.4-1.25,.48-2.86-.59-3.61Z"/><path class="cls-1" d="M76.28,40.42c-5.63,5.4-11.68,10.39-16.84,16.24-.6,.68-1.14,1.85-.38,2.35,.49,.32,1.14,.02,1.64-.28,12.4-7.44,21.88-18.92,29.75-31.05,.24-.37,.47-.75,.68-1.14-.64-.65-1.31-1.28-1.99-1.9-3.26,5.95-7.94,11.08-12.86,15.79Z"/><path class="cls-1" d="M10.64,84.2c1.87-.31,3.61-1.24,5.24-2.23,9.54-5.81,17.19-14.22,24.21-22.9-8.51,9.4-19.39,16.62-31.34,20.86,.56,1.45,1.19,2.87,1.88,4.27Z"/><path class="cls-1" d="M63.03,95.51c.04-.92-.25-1.98-1.09-2.36-.76-.35-1.65,0-2.38,.41-2.57,1.43-4.73,3.49-7.03,5.31-5.23,4.13-11.39,7.07-17.87,8.59,4.27,1.96,8.76,3.27,13.31,3.96,1.53-1.4,2.68-3.18,4.19-4.62,1.96-1.87,4.45-3.07,6.63-4.69,2.18-1.62,4.14-3.9,4.25-6.61Z"/><path class="cls-1" d="M58.53,27.13c3.97-3.55,7.49-7.77,9.36-12.75,.13-.34,.24-.68,.34-1.04-.87-.23-1.73-.43-2.61-.61-1.01,2.75-2.34,5.38-4,7.8-6.48,9.45-17.06,15.1-25.67,22.66-5.33,4.67-9.95,10.14-13.67,16.17,6.95-8.39,14.88-15.96,23.58-22.51,4.25-3.2,8.7-6.17,12.66-9.72Z"/><path class="cls-1" d="M75.74,28.35c-3.12,2.74-6.54,5.21-9.05,8.51,6.71-4.31,12.66-9.8,17.53-16.13-.57-.4-1.14-.79-1.72-1.16-1.3,3.46-3.96,6.31-6.76,8.77Z"/><path class="cls-1" d="M42.52,18.91c-3.55,3.57-7.34,6.98-11.67,9.55-4.34,2.57-9.28,4.28-14.32,4.24,4.33-3.11,8.65-6.21,12.98-9.32-3.42,1.17-6.81,2.44-10.17,3.79-.4,.41-.79,.82-1.18,1.25-2.49,2.79-4.6,5.78-6.36,8.91,12.27-1.2,23.93-8.11,30.73-18.42Z"/><path class="cls-1" d="M65.12,68.79c-1.85,3.7-5.44,6.48-9.49,7.35,.64-1.94,2.36-3.33,4.15-4.33s3.73-1.75,5.34-3.02Z"/><path class="cls-1" d="M63.33,60.9c1.1,.19,2.01-.51,2.14-1.61,.06-.57-.64-.85-1.07-.62-.57,.31-1.15,.62-1.72,.93-.81,.44-.09,1.67,.72,1.23,.57-.31,1.15-.62,1.72-.93-.36-.21-.72-.41-1.07-.62-.01,.12-.21,.26-.33,.24-.9-.16-1.28,1.22-.38,1.38Z"/><path class="cls-1" d="M63.71,38.06c-.53,.43-1.06,.86-1.6,1.28-.45,.36-.14,1.03,.31,1.19,.84,.3,1.74-.23,1.97-1.06,.25-.89-1.13-1.26-1.38-.38-.05,.16-.14,.09-.21,.07,.1,.4,.21,.79,.31,1.19,.53-.43,1.06-.86,1.6-1.28,.3-.24,.25-.76,0-1.01-.3-.3-.71-.24-1.01,0Z"/><path class="cls-1" d="M68.44,32.73c.77-.19,1.4-.67,1.79-1.35,.3-.52-.2-1.26-.81-1.05-.75,.26-1.34,.7-1.79,1.35-.53,.75,.71,1.47,1.23,.72,.23-.33,.56-.57,.94-.7-.27-.35-.54-.7-.81-1.05-.22,.38-.52,.59-.94,.7-.89,.22-.51,1.6,.38,1.38Z"/><path class="cls-1" d="M35.41,68c.71-.4,1.27-1.01,1.6-1.75,.22-.51-.04-1.03-.62-1.07-.6-.04-1.1,.26-1.42,.76-.5,.78,.74,1.49,1.23,.72,.06-.09,.05-.06,.19-.05-.21-.36-.41-.72-.62-1.07-.24,.54-.57,.95-1.09,1.24-.8,.46-.08,1.69,.72,1.23Z"/><path class="cls-1" d="M41.62,59.81c.38-.34,.75-.68,1.13-1.02,.69-.62-.33-1.62-1.01-1.01l-1.13,1.01c-.69,.62,.33,1.62,1.01,1.01Z"/><path class="cls-1" d="M45.21,55.59c.15-.17,.3-.33,.45-.5,.61-.68-.39-1.7-1.01-1.01-.15,.17-.3,.33-.45,.5-.61,.68,.39,1.7,1.01,1.01Z"/><path class="cls-1" d="M34.52,95.77c.35-.14,.7-.28,1.05-.41,.84-.34,.48-1.71-.38-1.38-.35,.14-.7,.28-1.05,.41-.84,.34-.48,1.72,.38,1.38Z"/><path class="cls-1" d="M39.92,91.6c.7-.05,1.31-.39,1.63-1.02,.42-.82-.81-1.54-1.23-.72-.09,.17-.19,.3-.4,.32-.91,.06-.92,1.49,0,1.43Z"/><path class="cls-1" d="M45.09,87.67c.07-.08,.15-.17,.22-.25,.61-.68-.39-1.7-1.01-1.01-.07,.08-.15,.17-.22,.25-.61,.68,.39,1.7,1.01,1.01Z"/><path class="cls-1" d="M80.7,76.54c.07-.08,.15-.17,.22-.25,.61-.68-.39-1.7-1.01-1.01-.07,.08-.15,.17-.22,.25-.61,.68,.39,1.7,1.01,1.01Z"/><path class="cls-1" d="M85.29,67.63c.19-.12,.39-.25,.58-.37,.77-.5,.06-1.73-.72-1.23-.19,.12-.39,.25-.58,.37-.77,.5-.06,1.73,.72,1.23Z"/><path class="cls-1" d="M87.73,59.02c.23-.09,.47-.18,.7-.27,.85-.33,.48-1.7-.38-1.38-.23,.09-.47,.18-.7,.27-.85,.33-.48,1.7,.38,1.38Z"/><path class="cls-1" d="M87.42,57.91c-.59,.42-.74,1.03-.46,1.68,.18,.41,.84,.46,1.12,.14,.26-.29,.52-.58,.78-.87,.61-.68-.39-1.7-1.01-1.01-.26,.29-.52,.58-.78,.87,.37,.05,.75,.1,1.12,.14-.02,.09-.04,.18-.06,.27,.75-.52,.04-1.76-.72-1.23Z"/><path class="cls-1" d="M89.62,55.53c.15-.09,.3-.18,.45-.27,.79-.47,.07-1.71-.72-1.23-.15,.09-.3,.18-.45,.27-.79,.47-.07,1.71,.72,1.23Z"/><path class="cls-1" d="M89.84,55.01c.07-.08,.15-.17,.22-.25,.61-.68-.39-1.7-1.01-1.01-.07,.08-.15,.17-.22,.25-.61,.68,.39,1.7,1.01,1.01Z"/><path class="cls-1" d="M92.35,51.85c.92,0,.92-1.43,0-1.43s-.92,1.43,0,1.43Z"/><path class="cls-1" d="M54.67,106.36c.27-.21,.53-.43,.8-.64,.3-.24,.25-.76,0-1.01-.3-.3-.71-.24-1.01,0-.27,.21-.53,.43-.8,.64-.3,.24-.25,.76,0,1.01,.3,.3,.71,.24,1.01,0Z"/><path class="cls-1" d="M59.14,104.07c.23-.17,.45-.35,.68-.52,.31-.24,.47-.61,.26-.98-.18-.3-.67-.49-.98-.26l-.68,.52c-.31,.24-.47,.61-.26,.98,.18,.3,.67,.49,.98,.26Z"/><path class="cls-1" d="M62.57,100.83c.19-.21,.37-.42,.56-.62,.61-.68-.39-1.7-1.01-1.01-.19,.21-.37,.42-.56,.62-.61,.68,.39,1.7,1.01,1.01Z"/><path class="cls-1" d="M25.98,54.34c.06-.32,.12-.64,.18-.96,.17-.9-1.2-1.28-1.38-.38-.06,.32-.12,.64-.18,.96-.17,.9,1.2,1.28,1.38,.38Z"/><path class="cls-1" d="M19.14,59.31c.27-.14,.54-.27,.81-.41,.82-.42,.1-1.65-.72-1.23-.27,.14-.54,.27-.81,.41-.82,.42-.1,1.65,.72,1.23Z"/><path class="cls-1" d="M28.78,50.57c.15-.17,.3-.33,.45-.5,.61-.68-.39-1.7-1.01-1.01-.15,.17-.3,.33-.45,.5-.61,.68,.39,1.7,1.01,1.01Z"/><path class="cls-1" d="M14.16,59.77c.2-.12,.39-.24,.59-.36,.78-.48,.06-1.72-.72-1.23-.2,.12-.39,.24-.59,.36-.78,.48-.06,1.72,.72,1.23Z"/><path class="cls-1" d="M36.08,28.07c.15-.17,.3-.33,.45-.5,.61-.68-.39-1.7-1.01-1.01-.15,.17-.3,.33-.45,.5-.61,.68,.39,1.7,1.01,1.01Z"/><path class="cls-1" d="M39.72,25.25s.07-.08,.11-.12c.61-.68-.39-1.7-1.01-1.01-.04,.04-.07,.08-.11,.12-.61,.68,.39,1.7,1.01,1.01Z"/><path class="cls-1" d="M42.74,21.88c.11-.12,.22-.25,.34-.38,.61-.68-.39-1.7-1.01-1.01-.11,.12-.22,.25-.34,.38-.61,.68,.39,1.7,1.01,1.01Z"/><path class="cls-1" d="M54.98,49.7c.15-.17,.3-.33,.45-.5,.61-.68-.39-1.7-1.01-1.01-.15,.17-.3,.33-.45,.5-.61,.68,.39,1.7,1.01,1.01Z"/><path class="cls-4" d="M92.91,95.29c18.47-20.64,16.7-52.34-3.94-70.81-9.8-8.77-22.09-12.96-34.27-12.76,11.56,.14,23.12,4.29,32.41,12.6,20.4,18.25,22.14,49.59,3.89,69.99-18.25,20.4-49.59,22.14-69.99,3.89,.36,.34,.71,.69,1.09,1.02,20.64,18.47,52.34,16.7,70.81-3.94Z"/><path class="cls-5" d="M59.96,67.02c13.93-14.79,19.04-34.58,12.58-52.35-18.66-6.72-40.35-1.95-54.39,13.74C4.45,43.73,1.9,65.14,9.93,82.71c17.98,4.71,36.4-1.22,50.04-15.69Z"/><g class="cls-13"><path class="cls-3" d="M21.23,28.2c12.65-12.15,32.86-14.51,43.45-3.63,10.6,10.88,.96,20.7-11.13,35.73-9.93,12.34-27.01,22.66-37.61,11.78-10.6-10.88-7.36-31.73,5.28-43.88Z"/></g><path class="cls-8" d="M104.61,1.12c-1.7,.67-3.58,1.63-5.63,2.82-4.11,2.39-8.84,5.77-14.08,9.91-1.63,1.3-3.32,2.69-5.04,4.15,.29,.16,.58,.31,.87,.48,1.59-1.36,3.15-2.66,4.67-3.88,5.17-4.17,9.88-7.51,13.92-9.82,2.02-1.16,3.86-2.09,5.48-2.72,6.85-2.65,9.22-.1,7.36,6.65-.46,1.68-1.2,3.6-2.16,5.71-1.91,4.24-4.78,9.24-8.42,14.78-1.19,1.81-2.47,3.68-3.82,5.61-2.78,3.96-5.88,8.14-9.28,12.49-5.06,6.45-10.75,13.3-16.94,20.39-6.2,7.06-12.9,14.42-20.08,21.74-5.71,5.88-11.75,11.76-18.14,17.39-1.61,1.42-3.23,2.82-4.88,4.2-4.11,3.42-8.39,6.72-12.9,9.54-2.25,1.4-4.57,2.71-6.95,3.61-1.19,.46-2.39,.79-3.55,.93-4.13,.47-4.61-3.22-3.59-7.24,.61-2.48,1.63-4.94,2.73-7.35,2.24-4.83,4.98-9.49,7.87-14.01,1.03-1.61,2.09-3.2,3.16-4.78-.2-.27-.38-.54-.57-.81-1.14,1.71-2.28,3.43-3.38,5.17-1.44,2.28-2.84,4.6-4.17,6.96-1.33,2.36-2.62,4.75-3.76,7.2-1.13,2.46-2.18,4.96-2.83,7.56-1.22,4.77-.47,8.88,4.42,8.41,1.31-.13,2.61-.47,3.87-.93,2.52-.92,4.92-2.22,7.26-3.57,2.34-1.37,4.59-2.89,6.82-4.45,2.23-1.55,4.4-3.18,6.53-4.83,1.98-1.54,3.92-3.11,5.83-4.7,6.35-5.28,12.35-10.82,18.06-16.36,7.39-7.27,14.22-14.59,20.43-21.8,6.23-7.17,11.8-14.23,16.71-20.9,3.08-4.18,5.9-8.22,8.43-12.05,1.5-2.28,2.91-4.48,4.21-6.61,3.47-5.72,6.24-10.85,8.09-15.23,.92-2.19,1.65-4.18,2.11-5.95,2.13-8.27-1.68-10.42-8.66-7.68Z"/></svg>