<?xml version="1.0" encoding="UTF-8"?><svg xmlns="http://www.w3.org/2000/svg" xmlns:xlink="http://www.w3.org/1999/xlink" viewBox="0 0 110 110"><defs><style>.cls-1{fill:#cfa195;}.cls-1,.cls-2{mix-blend-mode:multiply;}.cls-3{isolation:isolate;}.cls-4{fill:#cf5636;}.cls-5{fill:#e8914f;}.cls-2{fill:url(#radial-gradient);}.cls-6{fill:#e2bf6d;}.cls-7{opacity:.75;}.cls-7,.cls-8{fill:#ef633f;}.cls-9{mix-blend-mode:screen;opacity:.24;}.cls-9,.cls-10{fill:#fff;}.cls-11{fill:#d9a66a;}.cls-10{opacity:.15;}.cls-12{fill:#ffdf9c;}.cls-13{fill:url(#_Áåçûìÿííûé_ãðàäèåíò_892);opacity:.57;}.cls-14{filter:url(#luminosity-noclip-2);}.cls-15{mask:url(#mask-1);}.cls-16{mask:url(#mask);}.cls-17{fill:#beb988;}.cls-8{opacity:.34;}</style><filter id="luminosity-noclip-2" x="4.61" y="6.47" width="65.43" height="64.78" color-interpolation-filters="sRGB" filterUnits="userSpaceOnUse"><feFlood flood-color="#fff" result="bg"/><feBlend in="SourceGraphic" in2="bg"/></filter><filter id="luminosity-noclip-3" x="8247.11" y="-8246.74" width="-32766" height="32766" color-interpolation-filters="sRGB" filterUnits="userSpaceOnUse"><feFlood flood-color="#fff" result="bg"/><feBlend in="SourceGraphic" in2="bg"/></filter><mask id="mask-1" x="8247.11" y="-8246.74" width="-32766" height="32766" maskUnits="userSpaceOnUse"/><radialGradient id="radial-gradient" cx="-113.71" cy="-159.05" fx="-113.71" fy="-159.05" r="60.73" gradientTransform="translate(168.65 -98.82) rotate(-88.17) scale(.87 .89) skewX(12.18)" gradientUnits="userSpaceOnUse"><stop offset=".23" stop-color="#f4f4f4"/><stop offset=".67" stop-color="#515151"/><stop offset="1" stop-color="#000"/></radialGradient><mask id="mask" x="4.61" y="6.47" width="65.43" height="64.78" maskUnits="userSpaceOnUse"><g class="cls-14"><g class="cls-15"><path class="cls-2" d="M17.38,18.09c13.87-13.33,36.04-15.92,47.66-3.98,11.62,11.93,1.06,22.71-12.21,39.19-10.9,13.53-29.62,24.86-41.24,12.92C-.03,54.28,3.51,31.42,17.38,18.09Z"/></g></g></mask><radialGradient id="_Áåçûìÿííûé_ãðàäèåíò_892" cx="-113.71" cy="-159.05" fx="-113.71" fy="-159.05" r="60.73" gradientTransform="translate(168.65 -98.82) rotate(-88.17) scale(.87 .89) skewX(12.18)" gradientUnits="userSpaceOnUse"><stop offset=".23" stop-color="#fff"/><stop offset=".67" stop-color="#f7ebc2"/><stop offset="1" stop-color="#f3f9f7"/></radialGradient></defs><g class="cls-3"><g id="Layer_1"><circle class="cls-6" cx="55" cy="55" r="55" transform="translate(-17.28 26.26) rotate(-23.32)"/><path class="cls-5" d="M55,110c23.34,0,43.27-14.54,51.26-35.06-15.49,6.61-34.74,14.12-51.51,14.61-7.01,.2-14.07-.68-21.03,.19-5.51,.69-11.14,2.73-15.04,6.53,9.69,8.54,22.4,13.73,36.34,13.73Z"/><path class="cls-4" d="M43.69,78c-6.09-1.8-12.69-1.84-18.81-.13-3.83,1.07-6.52,3.91-10.06,2.1-3.1-1.58-6.56-2.42-10.04-2.54,2.28,5.09,5.3,9.77,8.94,13.91,.91-.27,1.81-.58,2.68-.93,5.47-2.15,10.48-5.39,16-7.4,6.99-2.54,14.54-3.03,21.96-3.49-2.15-3.12-7.56-3.67-10.67-1.51Z"/><path class="cls-5" d="M109.84,51.04c-3.99,6.55-11.15,10.86-18.52,13.31-8.15,2.71-16.79,3.57-25.12,5.64-3.56,.89-7.32,2.16-9.04,5.69-1.06,2.17-.67,4.88,1.28,6.31,1.57,1.15,3.4,1.02,5.17,.29,1.87-.77,1.61-3.5-.37-3.89h-.05c-.69-2.44,1.31-5,3.73-5.73s5.03-.07,7.38,.86c2.35,.93,4.62,2.13,7.11,2.54,3.41,.56,6.87-.44,10.18-1.42,6.17-1.83,12.61-3.81,17.16-8.35,.03-.03,.06-.07,.1-.11,.74-3.61,1.14-7.34,1.14-11.17,0-1.33-.06-2.65-.16-3.96Z"/><path class="cls-4" d="M108.61,42.75c-1.09-4.79-2.8-9.35-5.05-13.57-13.71,15.34-34.29,24.37-54.88,23.88-8.66-.21-17.38-1.99-25.93-.55-6.95,1.17-13.37,4.42-19.42,8.02-.97,.57-1.95,1.18-2.83,1.89,.42,3.11,1.09,6.14,2,9.06,19.43,.1,39-.02,57.96-4.16,17.84-3.9,35.31-11.73,48.14-24.57Z"/><path class="cls-5" d="M102.52,33.62c.77-.65,1.52-1.34,2.23-2.07-1.4-2.97-3.06-5.78-4.95-8.43-2.72,6.12-5.78,11.73-11.86,14.74-14.06,6.96-30.41,6.91-46.1,6.91-13.79,0-31.43-2.78-41.61,5.27C.09,51.67,0,53.33,0,55,0,58.49,.34,61.9,.96,65.21c.4-.15,.82-.28,1.3-.38,2.49-.5,5.07-.29,7.61-.28s5.18-.2,7.41-1.42c2.23-1.22,3.95-3.69,3.58-6.21,4.27-2.74,7.82-2.28,12.84-1.54s9.83,2.44,14.79,3.49c8.65,1.83,17.72,1.62,26.28-.59,1.18-.31,2.43-.7,3.16-1.68,.73-.97,.56-2.68-.59-3.07,.02-1.93,3.07-3.9,4.96-4.24,1.9-.34,3.91-.12,5.71-.83,3.12-1.24,4.51-4.76,6.51-7.46,2.16-2.93,5.23-5.02,8-7.37Z"/><path class="cls-11" d="M86.42,9.87c-9.96,7.39-23.53,8.61-36.07,7.94-11.6-.61-23.36-2.47-34.81-1.11-5.89,6.07-10.39,13.48-13,21.74,10.79-7.1,24.13-10.29,36.96-8.67,7.74,.97,15.26,3.61,23.06,3.86,8.79,.29,17.64-2.59,24.65-7.91,2.99-2.28,5.78-5.21,6.51-8.9,.05-.26,.08-.52,.11-.78-2.28-2.27-4.76-4.33-7.4-6.18Z"/><path class="cls-5" d="M83.95,8.24c-5.72,3.39-12.45,5.3-19.11,6.06-10.63,1.21-21.36-.11-32.05-.55-4.8-.2-9.67-.2-14.46,.27-1.35,1.21-2.64,2.48-3.87,3.82,6.61-1.19,13.79-.81,20.49-.25,11.54,.96,23.29,3.21,34.55,.53,6.23-1.48,12.34-4.11,17.9-7.56-1.12-.82-2.27-1.6-3.45-2.33Z"/><path class="cls-7" d="M76,24.97c.24,1.27-2.33,2.82-5.74,3.47-3.41,.65-6.37,.15-6.61-1.12-.24-1.27,2.33-2.82,5.74-3.47,3.41-.65,6.37-.15,6.61,1.12Z"/><path class="cls-12" d="M102.12,38.99c.5,.48,.2,1.62-.69,2.56-.89,.94-2.01,1.31-2.52,.83-.5-.48-.2-1.62,.69-2.56,.89-.94,2.01-1.31,2.52-.83Z"/><ellipse class="cls-12" cx="26.75" cy="65.45" rx="3.77" ry="1.8"/><path class="cls-12" d="M67.61,27.21c.82-.05,1.65-.1,2.47-.15,.88-.05,1.79-.12,2.56-.55,.39-.22,.77-.66,.6-1.07-.16-.4-.67-.48-1.1-.47-1.73,.01-3.46,.43-5.01,1.2-.23,.12-.49,.29-.5,.55-.01,.41,.56,.53,.97,.5Z"/><path class="cls-17" d="M27.08,64.83c-.96,0-1.92,.41-2.56,1.12,.82,.57,1.91,.74,2.87,.45,.39-.12,.82-.39,.82-.8,0-.51-.62-.76-1.13-.76Z"/><path class="cls-4" d="M84.23,77.15c.05-4.25,3.55-7.55,6.77-10.32,2.27-1.95,4.55-3.89,6.82-5.84,3.35-2.87,9.9-6.6,9.68-11.01,.48,8.14-.94,15.69-3.48,23.44s-9.19,15.9-15.61,20.92c-7.61,5.94-17.26,8.48-26.67,10.67-4.98,1.16-10.05,2.28-15.16,2.05-5.11-.23-10.35-1.95-13.84-5.69-1.69-1.81-2.79-4.95-.92-6.56,1.03-.89,2.59-.88,3.88-.43,1.29,.45,2.42,1.25,3.64,1.85,2.98,1.46,6.57,1.64,9.68,.47,1.39,2.49,4.7,3.7,7.37,2.71,2.67-1,4.37-4.09,3.78-6.88-.24-1.14-.81-2.19-1.05-3.33s-.09-2.5,.84-3.2c1.56-1.17,3.64,.27,5.37,1.18,3.44,1.81,7.57,1.39,11.42,.92,2.99-.36,6.51-1.11,7.63-3.91,.88-2.2-.19-4.66-.17-7.03Z"/><path class="cls-5" d="M82.21,62.87c-.21,.58,.28,1.22,.87,1.4s1.22,.03,1.81-.12c2.73-.69,5.46-1.38,8.19-2.08,1.21-.31,2.48-.65,3.32-1.57,1.49-1.62,.97-4.16,1.42-6.31-.64-.34-1.46,0-1.96,.52-.5,.52-.8,1.21-1.22,1.8-1.16,1.64-3.16,2.43-5.04,3.15-2.1,.79-4.19,1.58-6.29,2.38-.45,.17-.95,.39-1.12,.84Z"/><path class="cls-5" d="M26.12,75.47c.37,.21,.83,.17,1.25,.13,2.67-.27,5.34-.55,8-.82-.09-.43-.17-.87-.26-1.3-2.18-1.08-4.71-1.45-7.12-1.04-.77,.13-1.59,.37-2.08,.98-.5,.61-.49,1.67,.2,2.06Z"/><path class="cls-5" d="M53.23,82.42c-.42-.19-.91-.17-1.37-.15-4.2,.23-8.39,.65-12.55,1.25-.5,.07-1.02,.15-1.43,.44s-.68,.85-.48,1.31c.16,.37,.57,.57,.94,.73,2.39,1.05,4.82,2.12,7.41,2.42,2.59,.31,5.41-.25,7.28-2.07,.56-.54,1.03-1.21,1.13-1.98s-.24-1.63-.95-1.95Z"/><path class="cls-5" d="M75.6,36.93c.27,.33,.71,.44,1.13,.51,3.55,.58,7.12-.67,10.48-1.95,1.8-.69,3.63-1.41,5.06-2.69,1.43-1.28,2.41-3.25,1.99-5.13-.25-1.11-1.18-2.19-2.31-2.09-.86,.08-1.5,.79-2.12,1.4-3.53,3.52-8.55,5.02-12.92,7.43-.48,.26-.97,.55-1.28,1-.31,.45-.39,1.1-.04,1.53Z"/><path class="cls-8" d="M13.53,18.97C29.44,.96,56.84-1.62,75.81,13.49c19.59,15.6,22.78,44.15,7.14,63.77s-44.2,22.88-63.79,7.28C.19,69.43-3.41,42.16,10.61,22.63-6.71,46.32-2.45,79.63,20.67,98.05c23.73,18.91,58.34,14.96,77.3-8.82,18.96-23.77,15.08-58.37-8.65-77.28C66.2-6.47,32.76-3.19,13.53,18.97Z"/><path class="cls-1" d="M95.07,92.61c20.83-22.11,19.56-57.21-2.63-77.85-.25-.23-.34,0-.59-.23,13.16,21.01,11.38,49.78-6.73,69.15-17.61,18.84-44.92,22.97-66.93,12.17,8.43,7.6,19.22,12.63,31.14,13.85,.27,.03,.54,.04,.8,.06,.59,.05,1.18,.1,1.78,.14,.7,.04,1.4,.06,2.1,.07,.16,0,.31,.01,.47,.01,14.8,.1,29.61-5.73,40.58-17.38Z"/><path class="cls-10" d="M0,55C0,63.17,1.79,70.91,4.99,77.88c19.55,5.04,39.56-1.44,54.39-17.17,15.36-16.3,20.89-38.18,13.52-57.72C67.28,1.06,61.27,0,55,0,24.62,0,0,24.62,0,55Z"/><g class="cls-16"><path class="cls-13" d="M17.38,18.09c13.87-13.33,36.04-15.92,47.66-3.98,11.62,11.93,1.06,22.71-12.21,39.19-10.9,13.53-29.62,24.86-41.24,12.92C-.03,54.28,3.51,31.42,17.38,18.09Z"/></g><path class="cls-9" d="M30.56,104.27c7.36,3.66,15.66,5.73,24.44,5.73,30.38,0,55-24.62,55-55S85.38,0,55,0C46.91,0,39.24,1.76,32.32,4.9,46.85-1.1,63.82-.86,78.75,7.06c26.49,14.05,36.47,46.85,22.27,73.26-13.62,25.36-44.57,35.6-70.46,23.95Z"/></g></g></svg>